<mxfile host="app.diagrams.net" modified="2021-01-06T09:11:15.563Z" agent="5.0 (Windows NT 10.0; Win64; x64) AppleWebKit/537.36 (KHTML, like Gecko) Chrome/87.0.4280.88 Safari/537.36" etag="mR13F-HCUNcGxacXgZ-h" version="14.1.4" type="github">
  <diagram id="Y4K3TnZ6BrCUrUVcvMsF" name="Page-1">
    <mxGraphModel dx="1422" dy="706" grid="1" gridSize="10" guides="1" tooltips="1" connect="1" arrows="1" fold="1" page="1" pageScale="1" pageWidth="827" pageHeight="1169" math="0" shadow="0">
      <root>
        <mxCell id="0" />
        <mxCell id="1" parent="0" />
        <mxCell id="bPEXhzp361YjIitsZas1-34" value="" style="rounded=1;whiteSpace=wrap;html=1;" vertex="1" parent="1">
          <mxGeometry x="160" y="250" width="460" height="100" as="geometry" />
        </mxCell>
        <mxCell id="bPEXhzp361YjIitsZas1-2" value="ETL" style="rounded=1;whiteSpace=wrap;html=1;" vertex="1" parent="1">
          <mxGeometry x="197" y="270" width="120" height="60" as="geometry" />
        </mxCell>
        <mxCell id="bPEXhzp361YjIitsZas1-35" value="" style="group" vertex="1" connectable="0" parent="1">
          <mxGeometry x="161" y="399" width="459" height="80" as="geometry" />
        </mxCell>
        <mxCell id="bPEXhzp361YjIitsZas1-29" value="" style="rounded=0;whiteSpace=wrap;html=1;" vertex="1" parent="bPEXhzp361YjIitsZas1-35">
          <mxGeometry y="-12" width="459.00000000000006" height="80" as="geometry" />
        </mxCell>
        <mxCell id="bPEXhzp361YjIitsZas1-19" value="" style="shape=image;verticalLabelPosition=bottom;labelBackgroundColor=#ffffff;verticalAlign=top;aspect=fixed;imageAspect=0;image=data:image/png,iVBORw0KGgoAAAANSUhEUgAAAKMAAACyCAYAAAAu5n++AAAgAElEQVR4Ae3dB7QkRbkHcEyYc86CIqsgAqIoSJCogOSsgiAKSFQBSYpkMCCIhCUtikQlgwFQRDEgiAgIoiJmzDlh6nd+9fzuq63tnpl7d+6+mb7d5/Spnp7uCl/964tV1QtV3dFRYEQosNCI1GOBVOM///lPVXcqvOn+AqlYV0iiwIwBI7D985//TOc//vGPieu4F+m//vWv9N+///3vBNAOJwuOAjMCjIAIZH/84x+rn//859Utt9xSnXfeedUHPvCB6oADDqgOOuig6rjjjqsuueSS6jvf+U71y1/+svrLX/6S3llwXdGV1EowAp8Dd7vvvvuq3/72t9Udd9xRfeQjH6k23XTT6jnPeU71xCc+sXrMYx5TPepRj6oe/ehHV49//OOrpzzlKdXiiy9evelNb6o+8YlPVN/73veqP/3pTxVOmovxDjbTQ4HWgTHEMSD+/e9/r+6+++7q+OOPr5ZffvnqoQ99aPWABzyguv/971/d7373m+d03/8LL7xw9djHPrZ67WtfW51zzjmJmxLjuKt8nd0xfAq0DoyAgpP95je/qb7yla9Ub3jDG6pnPetZ1UMe8pAEwoUWWqjqdQIpUD7wgQ+sHvGIR1SLLbZYteeeeybR/te//nVCnxx+V3Q5tgqMuCIg/uEPf6huuummatVVV02AAq5eAMz/CzAGlwRKInzLLbesvvvd7yZdsuOM0zNwWgFGIAQQYvTPf/5zdcMNN1SvetWrBuaGORjrroluYvv1r399AiSRrczuGC4FWgVGYvTOO+9Mohl4gKgOXFO59+AHPzgBcv/99086JOB3x3Ap0BowAsevf/3r6sMf/nD1pCc9qXrQgx6UDJQSeMRwGCkMmoc97GHppFN6pwnA8d4LX/jC5Bb629/+1nHH4WKxagUYQ0TzH6611lqNQKT/PfzhD09gXWGFFaq99967OvXUU6sTTzyxeutb31otvfTS1eMe97gKF/QsAJZgZtRsscUW1Q9+8IPkNurE9fAQ2Qow0uGI6DPOOCMZG3UGi3uPfOQjq5e97GXVscceW911113Juf373/+++t3vflf94he/SEbPgQceWL3gBS9IoK3jkkD6vOc9r/rUpz6VDKXOmOnAOBcF+BO5cjbeeOPE1eo4GhH8ile8orrwwgsrIjb8hpEGd/3Vr35VzZkzp5o1a1bisCVn9Juj/OCDD04A7sA4V1fM149WcEahO9ES/sSSKwImIIqu0CdxwLCGidg4UdE1DitkKEwoSgN8Jbjpmeuss0714x//uNMb5wt+c7/cCjDyK1566aUT4Mm5GSCFeBaNwUV7cbMA5LXXXptEOlFdgpFOueiii6bojue7YzgUaAUYxZ6F/BgfORCDq3Fav+1tb0uinNWNMzYdwCWefe+99yZDJazyHJDuyfPrX/96T2A3ldHdr6dAa8D4/ve/P/kB68D45Cc/uTrllFPSrB1g68XNgDXCiXvssUeKU5fcERgB/+qrr56YRFFP3u7uZCjQCjAyXoARQHIOFsCkL86ePTtFZ/oRJzijPMWkWc91YMQZr7nmmg6M/Qg6if9bAUZimnHSJKbdJ6bplv0OYMQZf/rTn1abbbbZXDN8AtwhpsW/cdJenLZfed3//0eBVoARyK644orkzK7jjBzd/IsmztIHe4EHuFjnV111VfWSl7ykltMyYJ7//OcnC76XMfR/ZG6+Upems/mtdv7TCjACzz333FM9+9nPrg3nEbVPeMIT0mxu4jdcO2WXAgWw/uxnP6v22WefWk6LOwojrrvuutVPfvKT+TZglGkAAHV+uj/TjlaAEYCAbPPNN08zdUru6LcJszgdp7fZ2wBQHsDAij7zzDPTbHDiOERznnJ6H3bYYRUH+fxyRu+rC5cTHycVYX7zLNs1Lr9bAUacTkcCkUkSOCHw5KDkDBdXfulLX5pi0dwynNv0TRMscLkvfelLaT2McB/ulzvQ5RWgtjSBGLemZlDg4HSeBTaDIcq74IILqpNOOql63/veVx1++OHVBz/4wRQBonZ885vfTINM24KbD1reuAAwr2crwBii7hvf+Ea19tprTwApB2OAE7cjsldbbbVqp512SuCzIGu77bZLSxM4yHMuGNeAyaq2XmabbbapfvSjH02KiwGTMCQQnnXWWSkPSyGe/vSnJ64t/wA8zmuG+RprrJHUhS9+8YuVGDru2U/nzTt33K5bAUbcgqjD4fgTn/rUp9bO3AlAAZWQnk5naXPTuGaY+C8AmKfx7pJLLllddNFFycgJbtWv09VP3UyuWHPNNaunPe1pqTzcl/qAk8tfeQCpDu6ro7qJ9nAzWVTWpGL0q8M4/N8KMAZnxDnEqHGumFwb3DG4TqTR8fE70hyA+TOAiqPut99+SVcERCDrZWj4Hzc03Yz4Jd5Z9sCWlxfXOXd0L34DK45setyVV16Zyifue5U9DuAr69gKMOaN0vn0wde85jUTnC46uwRav98BCODBQd/ylrdU3//+92uNn7wOcQ0wpqqZK2lw9Cuv6f+ovwnAXEp0YwZb2wDZOjDiWLEOZpNNNknikMgLMdjU4XX3vQOIxCr9kpgcdHE/rsXdxEUkAqQOdWUMei/qgkObBGxdNwOqzisQg2Hc0taBkWjEMTjCWaNE9jOe8YxkSYd47AcAnIhoZH179x3veEdaiCXfQbgRgLCAhSBNawOgXmUG58vT/Hn3Q2S7pmuam0klMfDaIq5bB8bgBkBJh+TAFiq0bJXOlxsL0eE6Oj9Z3KzcjTbaqDr33HOTSBzEigUK5QLI7bffnqI+gCjvKEsaoDM4nOrkOQaL67gfqefz990n9nfeeec0pxL428AhWwtGoAQMIOJLFEc+7bTTqje/+c3VMsssk7hLdDCwAIEOXnHFFSuzdbhfvvWtbyUOC9Ty6ncAIzWBM3z33XdPlnAAKsqSKg/gTd41SBhFfI2nn356ihLZXmWJJZaYsPBzMAeXxB15DS677LIJy75f/Ub9/1aDMTgVrgFMjBv+wS9/+ctzGRQ6GGcCxOuuuy6BCQAByxnv9+tM5QH/V7/61eSOCcd5ydncN63NgjDGljU43lOWck3SYDWvvvrqyYo2UCKPACOQy2fHHXecqK/yx/loNRjLjtFZRKjlAiI1wa10MEuVw/zb3/52At9UOtY7jIpjjjkmcTUgyssIIOFo73rXu5ID3AAxUKI8KVCqJ86cO/Ejr0jlt9JKK6VNC+io437MKDDqLJ0m/owz5Z0KjNxBtjCZ6gFU8iZm5QcsUQZRi5vRC+1MgUOzzAOEZZkBSJzaWm35RV55KnRJpeAMH/ejA+N/DYphgJE4Z8Gb0ZNzReABRHoi6/qzn/1sEse9LHMglZ/4+Tvf+c7EaXMQxjX/p5g270ETsMcFpB0YhwzGL3zhC0l0Al8ARopL0kuJXfMqAWcQ8BDXFps1hTjF0k0cFm4cxMgaZWB2YBwyGD/3uc9VL3/5y2vdObjvG9/4xhQeHBQUdEqi2sYCuSETQBdeZMTgoB0YB6XqCDyHE9HT+B7rdMZXv/rVk+JaZZOI1V5gpC9uv/32SV8s3236DYyWzYprA2Pu5gFIeYoOAaPyx/loHWcEOJ0SqWvuElYu48J2efbWyaeK6WBca6mllqpOPvnk5LDmK4xwmzxwnTibxKvnrr/++mrllVeeR2cMMc2vaKc0zzqb8lKW/00ds/846z83iIIzihLttddenZgexVEYIARAFiYAioYA2QYbbFAtssgiaS/vPFask3EdIk+UxmSErbbaKoGAqwcwWeGDAEhZtl+Wfw6eKAOoOKrl18uAUVb4HEVa8sETQJSq79FHH90ZMKMIxuAogIgL2qYEx+MgBhAWLeOiBAruGKf/A5wWculsVnL4BJVRd7jvSwnAo7yyDPniwAaFuLL8enFGKsXll1+elkDkgycHI/Ft33GGzrgfrRDTwQ1xEx3IqW2HCeIS52DFAlqAI9K8U90r7wd4WLJ8kB/72Mcmoh0BemW7jrCjhf10z5IzKkv+8lSnXXfdNc0CAiL1jnwiL66aT37yk6kNgK3+UV/5+C0vO/SK4nRO7xEZijqTyNOBxOpuu+3W6AqJDp1sSoQ/85nPTAuxbB6Fq0X4jl4XEzJwYbPGcdamMgwOcXCb33/ta19LEzHEz4UFcVaDyZzFZZddNuUFdHlegCh/XFYMnBphMDRx2RHppr7VaAVnDFDcfPPNyVo1KxpnyrlJ3plTuZaXzscl+fXM3qYKWNNiZo/lBMr1DKD0Ktv/6gfgZgdtuOGGle2ZjzjiiDRJg2vIN2pCtagDo/9Mb+NAj4HRgbEv3qfngVyssXrNqLaoypoRnVcndqcCwngnRCOuBkD77rtvdf755yf90OIpBgYAes47UX6kkY80nlPP4HC4KQDKJ1cr6t73jnaKb+PSJAPxPu7H2HLG6ADiCXdiNJiS1Ysj5YDQyZ4FiDqjJn+2vPYOMPjSVqnP5c/ifnEqL/9vqtfy4VvETS2BwBXbcowtGEPRp2vZl9vUfqAatNOJU9yIq4VB4XrQ94EYd3LWgT+AzrHO2hU/lvdUARjvyddAeOUrX5kc4Yy1NnDEGExjC0ackQXpK1jivTqpBGKAAmCcOAo9iwW6ww47JB0NkPkgbYtsiQJ9DYctRWUAIlJ5l6cygBwIreQzw9zcSetgnvvc56b/op5lXSPfPI1npIBPhJsydvHFF6cJw2jQpmNswch6Zn0eeuihSWTmnRjXOhFHIioB0aJ5X0+1sAqQcZU4GUGsceA55JBD0kxrgASeAFDkm6fK8L9yAJEFzBChwxKh1IhYz+0/ERPP9spT/pFv5I27mnomTh0+xXE3WMqBNLZg1CFcIDgZ0OQAiesAI/3OehYzsLlOABH4ciMIKN2TL6PgM5/5TNrRAXiAuU4cK8d9eiOjxnIFrpr4RLABg3uFD5ITntuJrhkWvzpGffNUvtoFhLZksTkBRzkLPq972aHj/HtswWjdMJcKf10TUHAVuqCIB2U/HMwAAohxAmIOTJ3NQrf3Tvj6mspwXxni3UAM6PIPjhupe8J7fIImPgClb9GYjQOcwMxtxJdJpL/oRS9KjnbfxMbJSQHgjrqqb9uOsQVjbOaJczVxF2LTuhZzDCfrFNbZxLYtScSq6Ww554prYKTLHXnkkSn6A3S9Dvl6BrDMtKHzWgMdH0fyTWzrX2677bY0INTb820EX0mnsQNjdKb1IfHp3gBGnuKKDAmcxWSJfiApCeN3cDL73ABcHejdI059g4ZlD2T9jmgDoOGkRK8ojhNHxsHDkT1TgIhmYwlGnWjmC72ryWUCIPZjpCcC1VQ4CyAoy0ZPXDRNohrwcU+gV1a/Q74BshDj6hcg9V/cj+t+ebbh/7EDo07CTawzFk6rE5+4FT2O0UJHi46fbIcpi/5oxs7666+fLOCc+8a18uh8N954Y6rbZMvpnv9fCowdGAGLWKOjsWKbwMgKNenUs0A1Fc7oPeWJ8Fj8jwMGAMuU090sGyK2O6ZGgbEEI73KxAKiGBhzXc61k+MaYIEDqJyTPQKMLHd6Yy8wiuSYVwj83TE1CowtGE2aDc6YgxHHCjByPgdnxOGmcniP05oPsQPjVCg4+DtjB0bcCrezB7aoCoDUgZGY5svjngGoqXBGot17potZ1dcERuUT0/b57sT04OArnxxLMDJgbJLE3dKkM/rPl0/pe4yQqYDRO94VVRFrbrKm3WfAWP+ibt0xNQqMHRhxK7480/txP66dkjMS1UJ4dvLySTWzW6Yipr0DXB/96EeTT7OuHPfUQcREGHAQ1442xABxrRxpeRoMcW9q3Tteb40dGJFXJ4nTmtQqylIHEtxKqPDAAw9MMezo8Ml0DxDjrCYoUAmayqG7mvHDsAKyfofB5JQ/NYL7STSGnxKghf7kZSB4bipcvV8dRvH/sQQjQuo4i9ebIiM5d+S05rzGZSZziKjwZxLBTSKaHmmGtmloyhgEOADGQhemnDNnTpp5ZJqZHXJ5CXyU0/dh+DcZYFPh6pNp56g8O7ZgFDojgoX8egFF7NoqQR0fnCsXfwCa/9bxARbiue4DRbmPUdmc71w/FoPlZcjXGXkybizgBzYrCF/84hcn8U/dAGgRJSk3kckSlsniyoBpwRdOifPKL+o8KkAaRj3GFoxit0SbJaREdQ6QuCZWGTg626q9Sy65JHUq0YiLRcdKnfLEDX/4wx8mTmcrOvogwNWJaOW4Tz9VBtCb+GoSB+DRH+ULRGb04NCrrLJK8oH2yzfypgKYEOyLCSZPEOHyBUhnm46xBaNOJsJCjAYA8xRQiFEdj3uZWGGtjJk49mEMLgaYQGjyBcf16173ugnAyKMfGP0P9AYFkS5aY9UeXRAo7TpmAZevJtA9A4i98o12RN7qb16jvRhxSdwbDdp0jC0YiSkcgjtl6623TtGYJp9jAAoIiEJWti1ILD0QMuTQ5ke0fMH2J0R7GdkJcEgBJD/lH/eVIS5u33B5Aw9wW2cTIPR8vJPn2+ta23BJEzIsZzCxWPsnqwePMnjHFow6gZjCHW0BQsfCdYCkV6fm/3l2KgABDKHIunBknj/gE7HhnM//m+o1EM+aNas6++yzE2dvk6geWzDmxoFwnc+hEZF1TvC6jg/uFGndM0336Ii+bc23KAYOnHXPqguw9+Kyde/1u4dDLrfcctWtt96aBuMoc7vJ1G1swYgzhiXMQGDM+IQFvTC4Xb9OnYyoDNDicjgTUSkyY/GW5QMMmABdPCvFfcty4n8gpmfyh9In1Z13gLsK1w1VoGyH+1QBvk17g9Md2yCuxxaM+YjDJRkhHOE+16tjcY8mjlV27iC/AQ1w6GwnnHBCck4rk2XuE7xcO4CkXIOhBGBeRnBMbhyf8bUnN7Fr+YFlBzaFAnigrFsMJm/36aEf//jHk5HUBmOmVWBkuXKrcEDT1QCjFyhygPS6xokAxzf7rE+J5QVh0SpX5MSscou/iO7gknX5hmVvihurntUdSw6k3EDWxsgL4JSf56NN7gE9w8vzBsa4H60AYxgzlHkWpuiG2LV1KVbe6Xxcshcw/Zf/7xr3wZ1wKftm+7g6sIRYDDVBue7xU3IPcVQTs3l+wOS3euDc9nyMZQq5/isvp1AhT4EZ5qz7nMvLxwmQFpxZxUhVGfejFWDMOyEAgmtxf1h15+uqwa10YN6xARL3cbP4H9dhoW+77bbJWY579dPLgIoPELcqRXUAEbf2qWADppdrRlnagENaLktFCBDmXNJgO+OMM1oxda2VYNSRuAtOpdOJQmuViUWcplxVqJOBhygW/uMXtNmo/bnNZcQNAaPfAYyiJKauAXYOmihD2XaFULfgsHX5yksbGGZ2G1O3OjAyfg477LCku/YbLHXljNK91oJRxzijU4EJqFift9xyS+rcAItOJpKF8+z6QAejB3rHCTTy6XcAD6DZD6fkvsoiugFVDFuenm8CkPKUzUDyHRiiXZ7qGvWWUiPe/va3dxvM9+ucUftfx9PFGDks3+hUHUwMxqc3AKEJJL3aBFw+veFb0MR95C/1m4gW9TEg+h0xkNT385//fNJbce88T9dcTfRZ6oHyx/loHWfs1xkUfYZDHRjn99uBwEAd4HcswQjwwGjr5HvuuadfNSe4OjCKc5u7WcdtGWfi7cT5INy7b8H/jw90YPyvlYszDgOMDA5b7pVgxMWIaSLcNLJ+3Dc4o8kcJm+YVlYHRmLatwW5m6bCzf8fsTdP0R0YhwhGALMVHv9gCRyckVFjRzTzExkwdMImALlPrzTTnGjn3ilFtN+8BOZHitGP+9GBcchgFCcXQcFpS+7oN+6Ic5rFzThpEq2A6H/7houDM7DqwGgXM+Amzsf9mDFgDLGHgzAgiL3o3DBgTCELS7efGK3reGXI/7TTTkvx5jqDQ1ncNHRHDnI6bFjryqR34pjyEe0xhxEQvRf1jdS91VdffeKDSXV1Gqd7rQYjcOhcJwczvYrP0YxrEw2iU4NjRbgPWOlqQmwAMigwlQdIAG2jKMZFHYiAlK7HzWOtNeseR41QoPftnhZ5lBxWnkQ+0R36onLH/Wg1GIGQv1Akxj44VgoKn9GziMsAo86l4wGPDTtxyKOOOipZxqxUIhAg+x0Bfo5277PY5VsCMsoDJhGUzTbbLO37/e53vzstL+AawrlD1Jdg9JtlzsK2tie4a7/6jfr/rQUjYDASbrrppjSTW2gPRwKEOnDEfR3tOZ1tzqCN5y0bwCXl2esIMAIv9w3OF4AK4EujLKnyInUNvNL89H/+vv9EXhguBotBN8hg6VX3UfivdWAECDoYkWyty2qrrZbmGuKEOjHv1KbrAAcg2bbE1no4EHD3A2UAklogckL0ByDlWwKrqQ5xP56Pd7WBzmmpBY6PK/YbJKMAtEHq0DowAosVdIAICIPM2ImOr0t1vuUDfJC4bMza6UdcAMG1PvShD1WLLrroxMyb0uVTV2bdPWCkJ2qPrVbiqwdt4IhBy9aBMaxQa5KJ2xB7wWHqOrrXPe8BJP1OuNAXTPtxxyAuDm22D2OEC0Z9BuXOZZ3UQ+iP9exLDNop/7ZwRTRrBRjpTDqGyMK9cDHWso7XiQHEuI5Uh7vOn4v/4l6AApAAcvvtt0/6IED2s7IBxXMm3pqRrV6c3lSGKCfyj7rE/UjVw/PW99hVzVIH/se2AbFVYOTaIBZNEwPEOitWxxJ1Ope4I36BI3Z0ADb6XR03BQ73Wb/WanP9KHMQMQmUAMSv6IusppHR+6I8QHeqm1T9cEHuHzO97U1udwubCxhwg5QZ3Hmc0lZwRp2DA/m6lY8U6VDAy7lOcB6dbB2LxUyWJ9io3nnMMcckQwXYgKIEMzDKE0DWW2+95EtkpAwKDMD1PPFqxrh1L2aic2qbQ2mZBGMJUO1k4fuAJvb64LqQIPCHC6dNojkfLK0Ao47WWXQzHKcOiMCFA1q8f+GFF6YOxq24YfgiGT0c4qInJjPgnHk+ITYB1YeDbGOizEHBCECepVKwypXH/WPJgG1XgM5iLKE9xhfAmhYWHJhY9n5bgdgaMa1zGQo+QF4XOgMk4pcBEi6auk51LyxxopG4LLmr38SrXcNMwq3LJx/t3fXgFGgFZ8TZ6GPEXM7NQjQDKAPActBwzTSBiCgVQbFNs2hMHRgB22QH4rMpn8G7oHsyKNAKMBK3rFVhPlwwB5Df9DwuEeDpZ3QQhUS3Zaf0NuAu88QxzaQRmSF2u2M4FGgFGIlWzmUhshyIcc0itaiJ/tXvwOnoZ9wxZtbUWdYMJFY4wAJ3xx37UXWw/1sBRqE/cVoGSsnF/DZh4cwzzxxoOSfOCIzEuZ1kwzLP82XEAL7JFx0YBwPaIE+1Coy4Vakz+g2Mlp7ijLhYL05G7AKYKV277LJLAmPp5gFQwLdQqo3O50GAMx3PtAKMxPTs2bOT6AzRHCmOBqSxcB7Yeul5/mPE+D71hhtuOKEz5pwRGOmn3C+98pqODmtznq0AI0eyFXQAEiCMFIg4um1fZ700N1AvAPmPdc6P6B3v50CULwOGY5qfsBeXbTNwpqNtrQCjyARL2ewYIjWAGClORsczeTU2SSpBFOJbXkBmK2RhxQBjDkjg3nzzzZNTusxnOjpppuTZCjAKBRLVAGRSbA6cACSjw8xouiM/Yrh4IiqCI8pHFObQQw+dZ2loDkpRHpuT0is7MA5vqLQCjICEo9nfkHO7NGIAEphwNHFg24FY7EQvNLnCGhTrTs4777zkzpFHTIgNMEceRLR5kvZkJM6BuTuGQ4FWgDHcMaIwW265ZW1IEJiAFIfkBDdZQhTFjmE2erLuhCNbqM9zpQUNzO4T9z6DAcQ4accZhwNEubQCjEEOhgzuSHckruv0xwAVPRL3wy09i+MBah1XDSALK5plw1hicXdADMoPJ20VGPn8iFzLN/kWgQv4clE71WtgJb7t5U0/7cTzcACY59IqMGoY142YsRnZ87v+JYCLw1o6yrAxrasDYg6h4V23DoyMGYC0ySfdjuVLJBO/IaJ7ccv8GSBceOEHpfmL3ELcR/LuwDg8AOY5tQ6MgOJk6fr6gYX7Sy65ZAIlnQ8om/RCnDDASJ80wcLHJLlx7DIRDvMOjDmEhnfdOjAyKoBFSoek35lJbQYOaznnkiGG8xRQ6YciLNar2OIuVuLhugH24XVBl1NQoHVg1LCwcgOQwCSqYlfZ9773vWntiaWjse7EFsWWElje6ksFjBTLARhDuGFMhoh8g3hdOlwKtBKMdSQCpPvu+3uaGsYI4fC2rPWKK66oPv3pT6dJDwBr+QIRHxGaury6e9NDgRkFRiIWyJz8hJzWzrh2Hxd0EskdJ5we0DXlOmPAiADAVZ75/fy6A2ITZKbv/owC4/SRsct5GBTowDgMKnZ5DIUCHRiHQsYuk2FQoAPjMKjY5TEUCnRgHAoZu0yGQYEOjMOgYpfHUCjQgXEoZOwyGQYFOjAOg4pdHkOhQAfGoZCxy2QYFOjAOAwq/jcPUZuYMRSze2KmzxCLaW1WHRiH2LXAKL5tpo/VilK/AbM7+lNgHjAaySYOmHZlb5r8dC+mVPXPut1PAJ4JFUCHRjafskHAHXfckb6s5YsE119//VyrCAOs8U5OW9dmC5m4MVPBOwHGEDEAZw8Zm2UeffTRc512+oqNzmciwdAo6AQ0PgoEdGaT+/iRzUUtg7X2xrnKKqukybmeNchxSZsEnHrqqXPRNeh87LHHpo9S6oOZSN95wGiEn3vuuWnKvTXC+WlRkk037Us404gVQAQqXOzqq69Om0ktscQSaUcyy13L1Yg2u8cdg9uRKt4ziTena1zbXN5GAjN19eFcYERok0tPP/30RNh8Or5r0/GDwDMVjHa1veaaa9Im9PbiCQDGgq+cZkGrHIwm8/qOYf5cXPsUiH0kbb8C/DPtmAuMAAaMc+bM6QlGU/JnGrG0l47oozjWglQAABSsSURBVOW+mGDxf90mAQFKC7vsUmEPRzo42kp9ycAWKwHAPAVuXzwgnWYafQ28DowDsh9AZGDQ6+z3WAdEwLICkb5oM9FQaTowDkbkDoyD0Sl5EezzvfLKK0+I5pyr4YQAatcJm4zuv//+1RlnnJHWbwNyxxn7E7oDY38apSdwRd/ts6KwXHftNwPG17XofBZ7cfMwdOiLRG4Hxv6E7sDYn0bpCcDyFSt7+OQc0TUwsohtSA+EOCFjMD86MObUqL/uwFhPl3nu+voBPyt9sQQjEc3HaHcyoAU8Z350YMypUX89LWAklkI0xXWZ6hzcw+m/piM6Vhoch7+OY5jVyfqPM74FKE/PR5l5Hu7l/8UzcT+vh+ciL74/GwA0ffiI+La/D9dPXl600b1hWNPqmeeZ1z+/jnpHW/N2xXU8H3SVUiu0AS25mIK2rg00tC/LjzLkF22PvOOevP3X65gWMCoY4XWgRjSd/o/GNVUy8gri2OXBB8hPOeWUau+996622267arPNNktbKB900EHJaWyPHUQEWPWQBwIiMgAzRPI62Q7Z/bwuCBfPy8sCf7uQ2UgKJ8y5o98+Fafce++9dyJv3FSeEZ8eFhjlqW15G8prdUYzZQJE3aGN6uYZ71Mx7OB2zjnnVAcffHC10047Jdqi8X777Zc+8nnzzTdPtBF9AmTyAda6ekRdPNNUF/UbOhgVppJCZcSa7UK23nrreU47xu67777VjTfeOKHk1xEMoewSK3KBIDZiAgjuE5szccRLnYwIO8/arsQG8IjqG806z2nrY/vnbLXVVvPUZ+edd07REs9pAw5B7OoIbdhiiy2q5ZZbLvkXczC6ZkULA2666abpuWivncvspqsNOl46v35GddO5559/ftr2z667UV6e7rDDDil0a6A1cSQDFKgBzBfG1llnnbT1HxrGBqpBX7/5VunGPAq+YGtHjgCkgbf77runnYBL+trnSAgUWIG36RgaGDU4uBgAHHLIIWmjJY7ciNVKdRq9a9asWdVRRx2V9js0YvIjOk4DfUMagJZddtlECMQJx3LOneLaf6IiyrGDrU7xJVUjVgf6nEYeP446LbLIIunTv4irw4GS818IVGTEc8oGvByMyvVbmdFh0V6xafWPCMxUwag+gCMfVr2QoUEJGIAT5UnRG5c2gG677bYEthyMkZd23nnnnSlGvsYaaySd1/s2xirbF22Uoi9fqh3a1l133eS+slUgrrr44osneuX1cY157LbbbmlrmbKv834fGhgRy2wUlQIyBFHpAEk0RGNZpEYR0CKud+MIIBj9YuQ+tQs8TU7mPP/y2js6xwcpcSR+P9EPBM2f9Vt9fQxTfdRBW4xmnQ1o+fODXpfhwKmCEZgAkdgFbpEdnVyCRnvVd4MNNkgSR3kYhPbEAQyAiBviWAyvGOCDtiue855B7MPxJADXlvLzermGA1+ioJZpR9MxNDAqBBBPPPHEtHk7lh5x27zyRtQ222yTRC/ugzh5BQGTXigfDUV0+ZQAijx7pQjhXYC069gee+yRdhsrgT0OYAwA2VMcp9aush2AgBubnBFWPXrmYDTIhHM9Z5ADivZPhb7qgLkAIbGtb0mHvE8WGBg1UmOdjAKbuy+11FKpQhqnInGqNO5DbHIKG7VGvNP7MfqJZhzM/ojeiXw0MPLKr/N7+f0gMII5DQ66pI70Tk4wz/bijOoR5ZTvRpl5GnnjjFSEaOtkOSOa4GwGrX0ixcQBLugStAFKIFhxxRWryy67LBljwRH1UZwADYgrrLBCEvHei3bV1T/aGmm0K9J4F4c0+UMdglb5MwuEM+JqCEUJ9oVRo1bBeeURDBjEainbvrfiHYSOA7EQDxvXefQ6jYoGRRoAQ0T/I4IzN2Tinv9LzhH5lGkdGNWRzki/xUEQWt7akrdPXtHGqEfUYaWVVkpcaipgRB/0xcnodnRANFRWXn+/DTTG1aWXXlprQQd96ZDyMSADiHle2iW/nL5hHEbb9C8alPXI88mv5blAwAhADINrr722Wn755RNRykaqCDG51lprVbfffnviEohcglGH3XXXXdWaa645oXc0dTrRjcv5jovvSAvB4crAIyZMBPEHImCZR06ouEbYnDMaJLi1tnHXmBBrwjFrvs614316sHChmd6ed/Io0PPQSXsnwxm9g062b2bpM6S0pwQBWphTedVVVyUrm8qjHACMQz4YBj8pHdFAlU9JG/f8xzBiMDI66M0XXHBB0t9NAualYBiGqhA0bEqnFYyUZzpJdBbxsd566yXAAWKAUSWMIHoEl8Gtt96aOGKI5ByMkZcZMQiBIN7PieUadzIRYeONN04Esukn/yBCB4fmytCBF154YZqwEAp6E7Hc1wklGAOQ6ql+yokITFkv79v5Vn3UI8Sid/OzHxh1sClkBoF8tOOAAw5I3BkQ0VZ9la9MA51aFNPOgE5dnTkY5YURUBvQMO+jaL/8DDRMxR7mBhWXmsFEvDtda+N1112XNu9nPYdO30RfdZ0WzihTYCRKo4FErwqVHaTB9BtA5EvUmByAMWqlRrMvnnIV5PkE4YP4ZkK/5z3vSQ5onKPuCCD4X2dy3gIKYjcRzH91YMzzp8sGGMt81E8EhgEHcHWHtvcDIzDg8jwJgKCtJECAMMpVX6qAMjn/DRRAzAGY14ExQ4Lgrjl9XTsNfn1FhGMuVIOmvnIf2OXJ+wC81Jg836in1P1pA6PRRT+k+wEiThYjLSqBIxLN1oVYI2JEAZxGlAcCcqdYW8MqK0GjMbgCQhIzLO1exAowRucD5OGHH564i3pFHfN0lMBI1aAjckIzCoCkpAl6GJhnnXVW4lRNtEVrNBc9YhCWoEFbeRsEm2yySWIa9HYDuQnY7qOtZwCSnhoqWlnPaQWjEUSXOPvss6tdd911ooM1Kk4VAlCuFBEMIlTFEaUOjO4RrWa8ILx8cqAAOvHFJ8YKxwHk1zRydUAOSM/T3eg6JQePctR5FDij9p900kkp7ObbhiGagyZS9DBoTzjhhEQ33BYtmujhf/3FEMOhIq8AigHKhUbvx2Gb+imYiHKCvgYBRoJJ4NLwETSNVHnTwhkRQsXXX3/91Di/o1DXGkYnwT0vv/zyNHLqABgN0yjE4vxee+21k+iJ/CLVENEaa0eI+skcCKd8IpaeS8dBsLzeyhkVMBK98YmQHDg6VB3dIyFEt3B8EgIN644AKKkkgmUgancORr9Z4lY3es7AncwR9MXJqVjKUM+8jGkDo4wVWOca0MnEgDCVyAkWbuSocN0RowvAiHycoAQJoOAWIgoAiyNO5lAGMNJvKd7i4YiPYAH2UQKj9uNgQJnTAt3Rl4eA7sdSR7deemK0XbvNPMdly3bLkypgtWevvmqieXBRfc3SDu6b03bawBgdh1Blw0KP4bDmAFfRfuJUIzWE8VLnMlEeTsBdg/hNXKCJWNEh6qIcVqIOzYkVbRoFMR2gI2Fy+ro2KPfZZ5/EEYlGQNSuJpoE12JFW4tDYsk/bztOawLI3Xff3cg0mmjrvjL0MSDHLHjl5GVMOxgRJyeWwoERd+Pv0vEq6mwilvtOItSMHFw1b0RcU9RPO+20eXxnvYhU/qcc6oBZPIstttg8naItowJGQNSBOXDUjx5+3HHHpcAA8RxcqRd9PSOWLeIi36BppMBoZhHuqa+meqgDDwA1qOzHaQOjjIkQ6C/BqLEIZhoTn2K/kasBTtYbAJeNCIJxsF588cUT/rupEszolY/vCEbekY4KGNWDGpHri+qI7gY757YPKIXFC2y9DgCjK9Ph68CoL48//vgkyeYHjOqgTiJwvCj5QJo2MCIWpzO9sARkABWHoRDjjv10GmDEGXuB0Sybiy66aL44I2IBI78YKz8nls4eFTDS4USqDMzgkAFGqhFRbS6heYTBHZvAiLb9wAjgPk2Hq80PGJXFEueAX2BgRCyuHfvwAKTGIBpC6WCd6hkfjBSeA8im0asBTiPKDg2MouBUecp6F5IiZqd6KIcRM3v27OREHlUwMg5xKs5nOjRaomkYM1LP7LnnnhNuLm2rO4DLyTgxhS4Hd9AXB8Y4+G6b+qku77gXZXiXgSm4oH6RvxStlTP0KWQyxfI5Om2BwrfkHoLlFQAsIsXMaiO47kBEjeFSsEsDwyJAnefl/l577TUxz7Aur373EAvoxZbLkausUeGM6MYA9MFNHFJd0SSnr85lAfNHRuSlrv1BX8sI5EUkl4MQ2M0EEn9HoyZg1+XvXpRhoAu/is8rJ++/aQOjgijDHKRYe3RuTiwVQUAixfRzky7rjmgIK9kECSw+OEHeGCNNSJHDeyqjV9nhy9QpuHnZKaMERuFAERMqBf9qHYgwgKWXXjrpg4IKdUfQV0Bhyy23nFCr8rbrJ2qX/uylUtXl715wRrF0k6UNppIDTysYxaZxPB3M2clgKQmmAoBlkgK/mMrS2epGnvumrQtHlXooUCI8UW3NMu6GaNwJdXmVRIsOMXBM1cdly4GjjFEDI9eYODeXFm5T1tlvg3TVVVdNEyBwpjofrPZzA4lx47L6JAejfNDcwis0ko8BX5dXSVu/PecUaWO81A30aQUjMW2CplEBHGLP5h8CTXA0FQhAcqVg4cRxXSMjn6aVdwhmxIn68EcirnwGAaPncA7z+Mz3Q6yoY54qYxRcOwATM3AAw9JX3BzwcLG8zn6zvM1eF+70fB1NDHYTbk24ALwcjK61nbrFSATIQQe7skg1EzoiNFzWUX2VARtD1xlxwACjyqi4pZlikzozJ1ZcI6RRE17+uhFGrwRYeiY2H+9K/dYYFibCC4PhynWEL/PWEaZCbbvttgmICJ/nHdejCEYcCsAMfOuA8oGkg+OkP1qi0bQKEJ0YKPqt1JcDjEDKyKGrGrwYRL9DvnRW1jiGU4rnoO0CA6NKGx30ue233752BBMNiEBvoRsGV8vBBDRCgnRMgM9BEwTTWCLLCOPI5RKSlzrIK08NEqqBASAEKIrTRCxEG0Uwao9Th3P6U1VCDAYQ1R13BDRb73k23svBxKsBNPTDnLbelxeORsfHhXFIKgIJFCI7aIvOaI55iNpYp06v9W6Z7wIHowarqM4nCo3gOjABpEgKNwKClZxNo4lxFjrAAU40Jk9xSC4PeqtohBGPI8gTOKkNfhscXCThhEXsJmLJfxTBqOOj84lCep1lB+Wg0jbShxojZo226OndOHBYNKFj1unlaACUwM49YwaVOajKNajR1YnOojWXXHJJmlAN3GV/5/0V+S4QMR2N1XD6hpk1RjDwRaVi5BnBxHD4H4E4Du8DNB1JrBRx4/08BRqdgWjENoCbLbLLLruk3SWkfiOo/xHB895Tjzyv/HqUwRi0ueGGG9Iyi7LztUsbcSc7bBigpf6ItiQYdxAfcN4/JR38p68wBcs3LKADTr5N0k0Eiw6vj9A3BnoTfd1f4GDEujk+TZOnPwYApE6V1ghBe6POCA72L3XijqILFjIhiPdyYrnWOKf8gnA6Qt5SQPVfPBdluxfgLPP0zKgZMMHZpGhD1HL3iEihjfapd7RT+8xzNPObNQ6AQVcp8crnGBwWLUo6RF7SoBfQGdhO5cZgKJ/VFwaF9/J8PbfAwaixlF+Lw01ZUumyYn5rkBniRjCCESmI5ZCGMbPMMsskYNUBMm9sr+ucqICqs4g69/P3RhmM6AKQ6ET6iH4ZOHUdj7ZmXdMfDWzv5PRFb+qURW91M/RzmgxyjY5ohwHwqKAx4OX0db3AwaihuF3EmolKgCwrZgRxM/A/Ipj3ci6AePQ+cyJNldfQQQhT94yydRoAWlOMa1Mj8jp5bxzAiE4GKjdOLDctB6rBTifk+2UseifAGByWCMchBRIAEn3qaDfIPeUrUz/xA/PjBteO9+cbjEJSdZUELsYDd0MAKPQ+XE3DEYC7hwFBwc3zUTGnCtM9iB2KsffikK88KM4UZTog/SXEg0ZGPuV1EEAaI5bjfaONNkqLyFilxFzJsdURt7EkkxVZd6gnrmQCaV6OuijL4KPwG5B1B/oAgvVD6pDnEddUjfAz5vR1jUakD8+DrVr0g4GaA1JdtMXg4+hWH7qi9yM/9XDPzCo6tml/RDCaeD/qkl/HvUj953mckNGKriJtoavn77oOzsgAUv+mo3F7E52vYfkJRDhMOL2bMkV0Vhf9BIHzPOLafUAj1hG5PKIDNPLII49Mjaa/xPtSBHG61inOuKf+xLIoBmc5FcJ8RnPuyrbpVAPH4NBRdQcwWh3ITRT6kXJdI7ayBgUjAOTtiGsgsjBNpwV4yrq4b6BaA2MZsLrH+5GqE/+jBVvyAsDycI8LB0czk56XIugSNJQGXSNVhvaqK1fclVdemdQH0kyZMcEjrwvc7LjjjqkuA4PR6ItRYzMfxM9PM6VVnqjIuVnZUOCicJtlbMZNnkdcy591x2DBCeuI7x5OhWhGshHI2gYonIyYAWp+TEQAFNEEXIMPzLJLgwIQEQGwKfic9FEPKY6nc4U31aXuwPH4Lfnryne9ry3a3EQXnS9vkxKaaGLdOJ0uuFldPdBEXQDfSkJ9ktcnrrm+rENqAqN89BO1Sp2ASiSFro6GRC7ABW1JBBKKXxGwRHW853310U8nn3xy+hoEekQ9pPpapA6TaqKPts7DGVUwMteJ+alAeouOrRttQbxoKKJ6J88jrnUcnVF+dZwx8tKB/lem54FLVMXMIaqAddH2eTziiCMS0CjvojSI5B2NV1cpYkS5UQ+pfKW92qUO3vecPPL3/dZO72t73RF18Ezkk+fhOugbda7LR/5o4kRfZ5mP33mdmvpKXv6Tlz4HXB4RM+8NGOta0BaNLZ0Fbr5MA0Fd0cT7kUddX6uHUz21q4k+2joBxrLhXqo7y+f6/a7LI7/X7/38/3gvCKBx+Rn347n83biO/+rSeKZXWvde3Ov1XvlfvFOm5XP9fpfvl7/7vZ//792goTSnrev4L8rI343r+K9M4/9eaSMYe73U/ddRYDoo0IFxOqja5TklCnRgnBLZupemgwIdGKeDql2eU6JAB8Ypka17aToo0IFxOqja5TklCvwP7GKGgIvXnnsAAAAASUVORK5CYII=;" vertex="1" parent="bPEXhzp361YjIitsZas1-35">
          <mxGeometry x="130.3232142857143" y="9.426666666666655" width="39.04057750759878" height="42.63444984802431" as="geometry" />
        </mxCell>
        <mxCell id="bPEXhzp361YjIitsZas1-17" value="" style="shape=image;verticalLabelPosition=bottom;labelBackgroundColor=#ffffff;verticalAlign=top;aspect=fixed;imageAspect=0;image=data:image/svg+xml,PHN2ZyB4bWxuczpkYz0iaHR0cDovL3B1cmwub3JnL2RjL2VsZW1lbnRzLzEuMS8iIHhtbG5zOmNjPSJodHRwOi8vY3JlYXRpdmVjb21tb25zLm9yZy9ucyMiIHhtbG5zOnJkZj0iaHR0cDovL3d3dy53My5vcmcvMTk5OS8wMi8yMi1yZGYtc3ludGF4LW5zIyIgeG1sbnM6c3ZnPSJodHRwOi8vd3d3LnczLm9yZy8yMDAwL3N2ZyIgeG1sbnM9Imh0dHA6Ly93d3cudzMub3JnLzIwMDAvc3ZnIiB4bWxuczp4bGluaz0iaHR0cDovL3d3dy53My5vcmcvMTk5OS94bGluayIgeG1sbnM6c29kaXBvZGk9Imh0dHA6Ly9zb2RpcG9kaS5zb3VyY2Vmb3JnZS5uZXQvRFREL3NvZGlwb2RpLTAuZHRkIiB4bWxuczppbmtzY2FwZT0iaHR0cDovL3d3dy5pbmtzY2FwZS5vcmcvbmFtZXNwYWNlcy9pbmtzY2FwZSIgdmVyc2lvbj0iMS4xIiBpZD0iTGF5ZXJfMSIgeD0iMHB4IiB5PSIwcHgiIHZpZXdCb3g9IjAgMCAzNS45Mzk5OTUgMzUuOTUwMDAxIiB4bWw6c3BhY2U9InByZXNlcnZlIiBzb2RpcG9kaTpkb2NuYW1lPSJzYXBfc2VfcmFiYml0bXEuc3ZnIiB3aWR0aD0iMzUuOTM5OTk1IiBoZWlnaHQ9IjM1Ljk1MDAwMSIgaW5rc2NhcGU6dmVyc2lvbj0iMC45Mi4zICgyNDA1NTQ2LCAyMDE4LTAzLTExKSI+PG1ldGFkYXRhIGlkPSJtZXRhZGF0YTYwODc3Ij48cmRmOlJERj48Y2M6V29yayByZGY6YWJvdXQ9IiI+PGRjOmZvcm1hdD5pbWFnZS9zdmcreG1sPC9kYzpmb3JtYXQ+PGRjOnR5cGUgcmRmOnJlc291cmNlPSJodHRwOi8vcHVybC5vcmcvZGMvZGNtaXR5cGUvU3RpbGxJbWFnZSIvPjxkYzp0aXRsZS8+PC9jYzpXb3JrPjwvcmRmOlJERj48L21ldGFkYXRhPjxkZWZzIGlkPSJkZWZzNjA4NzUiLz48c29kaXBvZGk6bmFtZWR2aWV3IHBhZ2Vjb2xvcj0iI2ZmZmZmZiIgYm9yZGVyY29sb3I9IiM2NjY2NjYiIGJvcmRlcm9wYWNpdHk9IjEiIG9iamVjdHRvbGVyYW5jZT0iMTAiIGdyaWR0b2xlcmFuY2U9IjEwIiBndWlkZXRvbGVyYW5jZT0iMTAiIGlua3NjYXBlOnBhZ2VvcGFjaXR5PSIwIiBpbmtzY2FwZTpwYWdlc2hhZG93PSIyIiBpbmtzY2FwZTp3aW5kb3ctd2lkdGg9IjE5MjAiIGlua3NjYXBlOndpbmRvdy1oZWlnaHQ9IjEwMTciIGlkPSJuYW1lZHZpZXc2MDg3MyIgc2hvd2dyaWQ9ImZhbHNlIiBmaXQtbWFyZ2luLXRvcD0iMCIgZml0LW1hcmdpbi1sZWZ0PSIwIiBmaXQtbWFyZ2luLXJpZ2h0PSIwIiBmaXQtbWFyZ2luLWJvdHRvbT0iMCIgaW5rc2NhcGU6em9vbT0iMS4wMzAzMDMiIGlua3NjYXBlOmN4PSItMjUuMjI1MDA2IiBpbmtzY2FwZTpjeT0iLTE5Mi4wNCIgaW5rc2NhcGU6d2luZG93LXg9Ii04IiBpbmtzY2FwZTp3aW5kb3cteT0iLTgiIGlua3NjYXBlOndpbmRvdy1tYXhpbWl6ZWQ9IjEiIGlua3NjYXBlOmN1cnJlbnQtbGF5ZXI9IkxheWVyXzEiLz4mI3hhOyYjeGE7PGcgaWQ9Imc2MDg3MCIgdHJhbnNmb3JtPSJ0cmFuc2xhdGUoLTMyMi42MDAwMSwtMTkyLjc2KSI+JiN4YTsJPGRlZnMgaWQ9ImRlZnM2MDg1NSI+JiN4YTsJCTxyZWN0IGlkPSJTVkdJRF8zXyIgeD0iMzIyLjYwMDAxIiB5PSIxOTIuNzU5OTkiIHdpZHRoPSIzNi44MiIgaGVpZ2h0PSIzNi44MiIvPiYjeGE7CTwvZGVmcz4mI3hhOwk8Y2xpcFBhdGggaWQ9IlNWR0lEXzRfIj4mI3hhOwkJPHVzZSB4bGluazpocmVmPSIjU1ZHSURfM18iIHN0eWxlPSJvdmVyZmxvdzp2aXNpYmxlIiBpZD0idXNlNjA4NTciIHg9IjAiIHk9IjAiIHdpZHRoPSIxMDAlIiBoZWlnaHQ9IjEwMCUiLz4mI3hhOwk8L2NsaXBQYXRoPiYjeGE7CTxnIGNsaXAtcGF0aD0idXJsKCNTVkdJRF80XykiIGlkPSJnNjA4NjgiPiYjeGE7CQk8ZGVmcyBpZD0iZGVmczYwODYxIj4mI3hhOwkJCTxyZWN0IGlkPSJTVkdJRF81XyIgeD0iMzIyLjYwMDAxIiB5PSIxOTIuNzU5OTkiIHdpZHRoPSIzNi44MiIgaGVpZ2h0PSIzNi44MiIvPiYjeGE7CQk8L2RlZnM+JiN4YTsJCTxjbGlwUGF0aCBpZD0iU1ZHSURfNl8iPiYjeGE7CQkJPHVzZSB4bGluazpocmVmPSIjU1ZHSURfNV8iIHN0eWxlPSJvdmVyZmxvdzp2aXNpYmxlIiBpZD0idXNlNjA4NjMiIHg9IjAiIHk9IjAiIHdpZHRoPSIxMDAlIiBoZWlnaHQ9IjEwMCUiLz4mI3hhOwkJPC9jbGlwUGF0aD4mI3hhOwkJPHBhdGggc3R5bGU9ImZpbGw6I2ViNjAyMiIgZD0ibSAzNTEuMzUsMjE5LjM2IGMgMCwxLjIgLTAuOTYsMi4xNiAtMi4xNiwyLjE2IGggLTIuODggYyAtMS4yLDAgLTIuMTYsLTAuOTYgLTIuMTYsLTIuMTYgdiAtMi44OCBjIDAsLTEuMiAwLjk2LC0yLjE2IDIuMTYsLTIuMTYgaCAyLjg4IGMgMS4yLDAgMi4xNiwwLjk2IDIuMTYsMi4xNiB6IG0gNS43NSwtMTIuMjIgaCAtMTEuNSBjIC0wLjc4LDAgLTEuNDQsLTAuNjYgLTEuNDQsLTEuNDQgdiAtMTEuNSBjIDAsLTAuNzggLTAuNjYsLTEuNDQgLTEuNDQsLTEuNDQgaCAtNC4zMSBjIC0wLjc4LDAgLTEuNDQsMC42NiAtMS40NCwxLjQ0IHYgMTEuNSBjIDAsMC43OCAtMC42NiwxLjQ0IC0xLjQ0LDEuNDQgaCAtNC4zMSBjIC0wLjc4LDAgLTEuNDQsLTAuNjYgLTEuNDQsLTEuNDQgdiAtMTEuNSBjIDAsLTAuNzggLTAuNjYsLTEuNDQgLTEuNDQsLTEuNDQgaCAtNC4zMSBjIC0wLjc4LDAgLTEuNDQsMC42NiAtMS40NCwxLjQ0IHYgMzMuMDcgYyAwLDAuNzggMC42NiwxLjQ0IDEuNDQsMS40NCBoIDMzLjA3IGMgMC43OCwwIDEuNDQsLTAuNjYgMS40NCwtMS40NCB2IC0xOC42OSBjIDAsLTAuNzkgLTAuNjYsLTEuNDQgLTEuNDQsLTEuNDQiIGNsaXAtcGF0aD0idXJsKCNTVkdJRF82XykiIGlkPSJwYXRoNjA4NjYiIGlua3NjYXBlOmNvbm5lY3Rvci1jdXJ2YXR1cmU9IjAiLz4mI3hhOwk8L2c+JiN4YTs8L2c+JiN4YTs8L3N2Zz4=;" vertex="1" parent="bPEXhzp361YjIitsZas1-35">
          <mxGeometry x="286.8504107142858" y="14.333333333333329" width="36.366565349544075" height="36.366565349544075" as="geometry" />
        </mxCell>
        <mxCell id="bPEXhzp361YjIitsZas1-16" value="消&lt;br&gt;息&lt;br&gt;中&lt;br&gt;间&lt;br&gt;件" style="text;html=1;strokeColor=none;fillColor=none;align=center;verticalAlign=middle;whiteSpace=wrap;rounded=0;" vertex="1" parent="bPEXhzp361YjIitsZas1-35">
          <mxGeometry x="8.196428571428571" y="-2.333333333333335" width="32.785714285714285" height="66.66666666666666" as="geometry" />
        </mxCell>
        <mxCell id="bPEXhzp361YjIitsZas1-36" value="" style="rounded=0;whiteSpace=wrap;html=1;fillColor=#dae8fc;strokeColor=#6c8ebf;" vertex="1" parent="1">
          <mxGeometry x="160" y="180" width="460" height="40" as="geometry" />
        </mxCell>
        <mxCell id="bPEXhzp361YjIitsZas1-37" value="数据源转化" style="rounded=0;whiteSpace=wrap;html=1;" vertex="1" parent="1">
          <mxGeometry x="260" y="187.5" width="108" height="25" as="geometry" />
        </mxCell>
        <mxCell id="bPEXhzp361YjIitsZas1-39" value="API网关" style="rounded=0;whiteSpace=wrap;html=1;" vertex="1" parent="1">
          <mxGeometry x="380" y="187.5" width="108" height="25" as="geometry" />
        </mxCell>
        <mxCell id="bPEXhzp361YjIitsZas1-41" value="RPC/Feign" style="rounded=0;whiteSpace=wrap;html=1;" vertex="1" parent="1">
          <mxGeometry x="500" y="187.5" width="108" height="25" as="geometry" />
        </mxCell>
        <mxCell id="bPEXhzp361YjIitsZas1-42" value="数&lt;br&gt;据&lt;br&gt;能&lt;br&gt;力&lt;br&gt;层" style="text;html=1;strokeColor=none;fillColor=none;align=center;verticalAlign=middle;whiteSpace=wrap;rounded=0;" vertex="1" parent="1">
          <mxGeometry x="161" y="250" width="40" height="100" as="geometry" />
        </mxCell>
        <mxCell id="bPEXhzp361YjIitsZas1-45" value="聚合微服务" style="rounded=1;whiteSpace=wrap;html=1;" vertex="1" parent="1">
          <mxGeometry x="340" y="270" width="120" height="60" as="geometry" />
        </mxCell>
        <mxCell id="bPEXhzp361YjIitsZas1-46" value="计算微服务" style="rounded=1;whiteSpace=wrap;html=1;" vertex="1" parent="1">
          <mxGeometry x="475" y="270" width="120" height="60" as="geometry" />
        </mxCell>
        <mxCell id="bPEXhzp361YjIitsZas1-49" value="数据服务接口" style="text;html=1;strokeColor=none;fillColor=none;align=center;verticalAlign=middle;whiteSpace=wrap;rounded=0;" vertex="1" parent="1">
          <mxGeometry x="160" y="190" width="80" height="20" as="geometry" />
        </mxCell>
        <mxCell id="bPEXhzp361YjIitsZas1-54" value="" style="group" vertex="1" connectable="0" parent="1">
          <mxGeometry x="375" y="70" width="100" height="80" as="geometry" />
        </mxCell>
        <mxCell id="bPEXhzp361YjIitsZas1-52" value="" style="html=1;verticalLabelPosition=bottom;align=center;labelBackgroundColor=#ffffff;verticalAlign=top;strokeWidth=1;shadow=0;dashed=0;shape=mxgraph.ios7.icons.cloud;rounded=0;" vertex="1" parent="bPEXhzp361YjIitsZas1-54">
          <mxGeometry width="100" height="80" as="geometry" />
        </mxCell>
        <mxCell id="bPEXhzp361YjIitsZas1-53" value="外网apps" style="text;html=1;strokeColor=none;fillColor=none;align=center;verticalAlign=middle;whiteSpace=wrap;rounded=0;" vertex="1" parent="bPEXhzp361YjIitsZas1-54">
          <mxGeometry x="16" y="40" width="68" height="20" as="geometry" />
        </mxCell>
        <mxCell id="bPEXhzp361YjIitsZas1-56" value="内网apps" style="rounded=1;whiteSpace=wrap;html=1;strokeWidth=1;" vertex="1" parent="1">
          <mxGeometry x="500" y="90" width="110" height="60" as="geometry" />
        </mxCell>
        <mxCell id="bPEXhzp361YjIitsZas1-58" value="" style="endArrow=classic;html=1;entryX=0.75;entryY=0;entryDx=0;entryDy=0;exitX=0.25;exitY=1;exitDx=0;exitDy=0;" edge="1" parent="1" source="bPEXhzp361YjIitsZas1-37" target="bPEXhzp361YjIitsZas1-2">
          <mxGeometry width="50" height="50" relative="1" as="geometry">
            <mxPoint x="390" y="320" as="sourcePoint" />
            <mxPoint x="440" y="270" as="targetPoint" />
          </mxGeometry>
        </mxCell>
        <mxCell id="bPEXhzp361YjIitsZas1-59" value="" style="group" vertex="1" connectable="0" parent="1">
          <mxGeometry x="283" y="70" width="60" height="80" as="geometry" />
        </mxCell>
        <mxCell id="bPEXhzp361YjIitsZas1-51" value="外部数据源" style="shape=cylinder3;whiteSpace=wrap;html=1;boundedLbl=1;backgroundOutline=1;size=15;rounded=0;" vertex="1" parent="bPEXhzp361YjIitsZas1-59">
          <mxGeometry width="60" height="80" as="geometry" />
        </mxCell>
        <mxCell id="bPEXhzp361YjIitsZas1-57" value="" style="endArrow=classic;html=1;exitX=0.5;exitY=1;exitDx=0;exitDy=0;exitPerimeter=0;" edge="1" parent="bPEXhzp361YjIitsZas1-59" source="bPEXhzp361YjIitsZas1-51" target="bPEXhzp361YjIitsZas1-37">
          <mxGeometry width="50" height="50" relative="1" as="geometry">
            <mxPoint x="107" y="250" as="sourcePoint" />
            <mxPoint x="157" y="200" as="targetPoint" />
          </mxGeometry>
        </mxCell>
        <mxCell id="bPEXhzp361YjIitsZas1-60" value="" style="endArrow=classic;html=1;exitX=0.49;exitY=1;exitDx=0;exitDy=0;exitPerimeter=0;" edge="1" parent="1" source="bPEXhzp361YjIitsZas1-52">
          <mxGeometry width="50" height="50" relative="1" as="geometry">
            <mxPoint x="390" y="320" as="sourcePoint" />
            <mxPoint x="424" y="190" as="targetPoint" />
          </mxGeometry>
        </mxCell>
        <mxCell id="bPEXhzp361YjIitsZas1-61" value="" style="endArrow=classic;html=1;entryX=0.602;entryY=0.02;entryDx=0;entryDy=0;entryPerimeter=0;" edge="1" parent="1">
          <mxGeometry width="50" height="50" relative="1" as="geometry">
            <mxPoint x="433" y="213" as="sourcePoint" />
            <mxPoint x="432.9200000000001" y="252" as="targetPoint" />
          </mxGeometry>
        </mxCell>
        <mxCell id="bPEXhzp361YjIitsZas1-62" value="" style="endArrow=classic;html=1;" edge="1" parent="1">
          <mxGeometry width="50" height="50" relative="1" as="geometry">
            <mxPoint x="564" y="150" as="sourcePoint" />
            <mxPoint x="564" y="187" as="targetPoint" />
          </mxGeometry>
        </mxCell>
        <mxCell id="bPEXhzp361YjIitsZas1-63" value="" style="endArrow=classic;html=1;exitX=0.865;exitY=1;exitDx=0;exitDy=0;exitPerimeter=0;entryX=0.865;entryY=0.02;entryDx=0;entryDy=0;entryPerimeter=0;" edge="1" parent="1" source="bPEXhzp361YjIitsZas1-36" target="bPEXhzp361YjIitsZas1-34">
          <mxGeometry width="50" height="50" relative="1" as="geometry">
            <mxPoint x="390" y="320" as="sourcePoint" />
            <mxPoint x="440" y="270" as="targetPoint" />
          </mxGeometry>
        </mxCell>
        <mxCell id="bPEXhzp361YjIitsZas1-64" value="" style="endArrow=classic;startArrow=classic;html=1;entryX=0.5;entryY=1;entryDx=0;entryDy=0;exitX=0.5;exitY=0;exitDx=0;exitDy=0;" edge="1" parent="1" source="bPEXhzp361YjIitsZas1-29" target="bPEXhzp361YjIitsZas1-34">
          <mxGeometry width="50" height="50" relative="1" as="geometry">
            <mxPoint x="390" y="320" as="sourcePoint" />
            <mxPoint x="440" y="270" as="targetPoint" />
          </mxGeometry>
        </mxCell>
        <mxCell id="bPEXhzp361YjIitsZas1-65" value="" style="group" vertex="1" connectable="0" parent="1">
          <mxGeometry x="160" y="500" width="470" height="110" as="geometry" />
        </mxCell>
        <mxCell id="bPEXhzp361YjIitsZas1-5" value="" style="rounded=0;whiteSpace=wrap;html=1;" vertex="1" parent="bPEXhzp361YjIitsZas1-65">
          <mxGeometry width="470" height="110" as="geometry" />
        </mxCell>
        <mxCell id="bPEXhzp361YjIitsZas1-7" value="" style="outlineConnect=0;fontColor=#232F3E;gradientColor=none;fillColor=#3334B9;strokeColor=none;dashed=0;verticalLabelPosition=bottom;verticalAlign=top;align=center;html=1;fontSize=12;fontStyle=0;aspect=fixed;pointerEvents=1;shape=mxgraph.aws4.rds_mysql_instance;" vertex="1" parent="bPEXhzp361YjIitsZas1-65">
          <mxGeometry x="52.035714285714285" y="15.125" width="65.46428571428572" height="65.46428571428572" as="geometry" />
        </mxCell>
        <mxCell id="bPEXhzp361YjIitsZas1-8" value="" style="shape=image;verticalLabelPosition=bottom;labelBackgroundColor=#ffffff;verticalAlign=top;aspect=fixed;imageAspect=0;image=data:image/svg+xml,PHN2ZyB4bWxuczpjYz0iaHR0cDovL2NyZWF0aXZlY29tbW9ucy5vcmcvbnMjIiB4bWxuczpkYz0iaHR0cDovL3B1cmwub3JnL2RjL2VsZW1lbnRzLzEuMS8iIHhtbG5zOmlua3NjYXBlPSJodHRwOi8vd3d3Lmlua3NjYXBlLm9yZy9uYW1lc3BhY2VzL2lua3NjYXBlIiB4bWxuczpyZGY9Imh0dHA6Ly93d3cudzMub3JnLzE5OTkvMDIvMjItcmRmLXN5bnRheC1ucyMiIHhtbG5zOnNvZGlwb2RpPSJodHRwOi8vc29kaXBvZGkuc291cmNlZm9yZ2UubmV0L0RURC9zb2RpcG9kaS0wLmR0ZCIgeG1sbnM6c3ZnPSJodHRwOi8vd3d3LnczLm9yZy8yMDAwL3N2ZyIgeG1sbnM9Imh0dHA6Ly93d3cudzMub3JnLzIwMDAvc3ZnIiB4bWxuczp4bGluaz0iaHR0cDovL3d3dy53My5vcmcvMTk5OS94bGluayIgdmVyc2lvbj0iMS4xIiBpZD0ic3ZnMTAzNDc0IiBpbmtzY2FwZTp2ZXJzaW9uPSIwLjkyLjMgKDI0MDU1NDYsIDIwMTgtMDMtMTEpIiBzb2RpcG9kaTpkb2NuYW1lPSJyZWRpcy5zdmciIHg9IjBweCIgeT0iMHB4IiB2aWV3Qm94PSIwIDAgMzcuNTEgMzEuNiIgc3R5bGU9ImVuYWJsZS1iYWNrZ3JvdW5kOm5ldyAwIDAgMzcuNTEgMzEuNjsiIHhtbDpzcGFjZT0icHJlc2VydmUiPiYjeGE7PHNvZGlwb2RpOm5hbWVkdmlldyBib3JkZXJjb2xvcj0iIzY2NjY2NiIgYm9yZGVyb3BhY2l0eT0iMSIgZml0LW1hcmdpbi1ib3R0b209IjAiIGZpdC1tYXJnaW4tbGVmdD0iMCIgZml0LW1hcmdpbi1yaWdodD0iMCIgZml0LW1hcmdpbi10b3A9IjAiIGdyaWR0b2xlcmFuY2U9IjEwIiBndWlkZXRvbGVyYW5jZT0iMTAiIGlkPSJuYW1lZHZpZXcxMDM0NzYiIGlua3NjYXBlOmN1cnJlbnQtbGF5ZXI9InN2ZzEwMzQ3NCIgaW5rc2NhcGU6Y3g9IjI1LjAwNTA2MyIgaW5rc2NhcGU6Y3k9IjIxLjA2NDU5MiIgaW5rc2NhcGU6cGFnZW9wYWNpdHk9IjAiIGlua3NjYXBlOnBhZ2VzaGFkb3c9IjIiIGlua3NjYXBlOndpbmRvdy1oZWlnaHQ9IjEwMTciIGlua3NjYXBlOndpbmRvdy1tYXhpbWl6ZWQ9IjEiIGlua3NjYXBlOndpbmRvdy13aWR0aD0iMTkyMCIgaW5rc2NhcGU6d2luZG93LXg9Ii04IiBpbmtzY2FwZTp3aW5kb3cteT0iLTgiIGlua3NjYXBlOnpvb209IjE5LjY0MjUwNCIgb2JqZWN0dG9sZXJhbmNlPSIxMCIgcGFnZWNvbG9yPSIjZmZmZmZmIiBzaG93Z3JpZD0iZmFsc2UiPiYjeGE7CTwvc29kaXBvZGk6bmFtZWR2aWV3PiYjeGE7PGcgaWQ9ImcxMDM0NzIiIHRyYW5zZm9ybT0idHJhbnNsYXRlKC0wLjc0NjgyNzEsLTAuNzUxNjI1KSI+JiN4YTsJPHRpdGxlIGlkPSJ0aXRsZTEwMzM4OCI+UGFnZS0xPC90aXRsZT4mI3hhOwk8ZyBpZD0iZ3JvdXAzNzc2LTEiIHRyYW5zZm9ybT0idHJhbnNsYXRlKDAuNDA3MjksLTAuNjA5Mzc1KSI+JiN4YTsJCTx0aXRsZSBpZD0idGl0bGUxMDMzOTAiPlJlZGlzLjYzNjwvdGl0bGU+JiN4YTsJCTxnIGlkPSJncm91cDM3NzctMiI+JiN4YTsJCQk8dGl0bGUgaWQ9InRpdGxlMTAzMzkyIj5TaGVldC4zNzc3PC90aXRsZT4mI3hhOwkJCTxnIGlkPSJzaGFwZTM3NzgtMyIgdHJhbnNmb3JtPSJ0cmFuc2xhdGUoMC4yMzcpIj4mI3hhOwkJCQk8dGl0bGUgaWQ9InRpdGxlMTAzMzk0Ij5TaGVldC4zNzc4PC90aXRsZT4mI3hhOwkJCQk8cGF0aCBpZD0icGF0aDEwMzM5NiIgaW5rc2NhcGU6Y29ubmVjdG9yLWN1cnZhdHVyZT0iMCIgc3R5bGU9ImZpbGw6I0JBMTQxQTsiIGQ9Ik0wLjExLDI1LjE5Yy0wLjA2LDAuNCwwLjI4LDAuOCwxLjAyLDEuMTEgICAgICBsMTUuMjQsNi4yNGMxLjM3LDAuNTYsMy42LDAuNTYsNC45NywwbDE1LjI0LTYuMjRjMC43NC0wLjMxLDEuMDgtMC43MSwxLjAyLTEuMTF2LTMuNThjMC4wNSwwLjM5LTAuMjksMC43OS0xLjAyLDEuMDkgICAgICBsLTE1LjI0LDYuMjRjLTEuMzcsMC41Ni0zLjYsMC41Ni00Ljk3LDBMMS4xMywyMi43Yy0wLjgtMC4zMy0xLjEzLTAuNzgtMS0xLjJMMC4xMSwyNS4xOXoiLz4mI3hhOwkJCTwvZz4mI3hhOwkJCTxnIGlkPSJzaGFwZTM3NzktNSIgdHJhbnNmb3JtPSJ0cmFuc2xhdGUoMCwtMy42KSI+JiN4YTsJCQkJPHRpdGxlIGlkPSJ0aXRsZTEwMzM5OSI+U2hlZXQuMzc3OTwvdGl0bGU+JiN4YTsJCQkJPHBhdGggaWQ9InBhdGgxMDM0MDEiIGlua3NjYXBlOmNvbm5lY3Rvci1jdXJ2YXR1cmU9IjAiIHN0eWxlPSJmaWxsOiNCQTE0MUE7IiBkPSJNMzYuODEsMjQuMjZjMS4zOCwwLjU3LDEuMzgsMS40OCwwLDIuMDQgICAgICBsLTE1LjIzLDYuMjRjLTEuMzcsMC41Ni0zLjYsMC41Ni00Ljk3LDBMMS4zNywyNi4zQzAsMjUuNzQsMCwyNC44MywxLjM3LDI0LjI2bDE1LjI0LTYuMjRjMS4zNy0wLjU2LDMuNi0wLjU2LDQuOTcsMCAgICAgIEwzNi44MSwyNC4yNnoiLz4mI3hhOwkJCTwvZz4mI3hhOwkJPC9nPiYjeGE7CQk8ZyBpZD0iZ3JvdXAzNzgwLTciIHRyYW5zZm9ybT0idHJhbnNsYXRlKDAsLTYuMzE5NSkiPiYjeGE7CQkJPHRpdGxlIGlkPSJ0aXRsZTEwMzQwNSI+U2hlZXQuMzc4MDwvdGl0bGU+JiN4YTsJCQk8ZyBpZD0ic2hhcGUzNzgxLTgiIHRyYW5zZm9ybT0idHJhbnNsYXRlKDAuMjM3KSI+JiN4YTsJCQkJPHRpdGxlIGlkPSJ0aXRsZTEwMzQwNyI+U2hlZXQuMzc4MTwvdGl0bGU+JiN4YTsJCQkJPHBhdGggaWQ9InBhdGgxMDM0MDkiIGlua3NjYXBlOmNvbm5lY3Rvci1jdXJ2YXR1cmU9IjAiIHN0eWxlPSJmaWxsOiNCQTE0MUE7IiBkPSJNMC4xMSwyNS4xOWMtMC4wNiwwLjQsMC4yOCwwLjgsMS4wMiwxLjExICAgICAgbDE1LjI0LDYuMjRjMS4zNywwLjU2LDMuNiwwLjU2LDQuOTcsMGwxNS4yNC02LjI0YzAuNzQtMC4zMSwxLjA4LTAuNzEsMS4wMi0xLjExdi0zLjU4YzAuMDUsMC4zOS0wLjI5LDAuNzktMS4wMiwxLjA5ICAgICAgbC0xNS4yNCw2LjI0Yy0xLjM3LDAuNTYtMy42LDAuNTYtNC45NywwTDEuMTMsMjIuN2MtMC44LTAuMzMtMS4xMy0wLjc4LTEtMS4yTDAuMTEsMjUuMTl6Ii8+JiN4YTsJCQk8L2c+JiN4YTsJCQk8ZyBpZD0ic2hhcGUzNzgyLTEwIiB0cmFuc2Zvcm09InRyYW5zbGF0ZSgwLC0zLjYpIj4mI3hhOwkJCQk8dGl0bGUgaWQ9InRpdGxlMTAzNDEyIj5TaGVldC4zNzgyPC90aXRsZT4mI3hhOwkJCQk8cGF0aCBpZD0icGF0aDEwMzQxNCIgaW5rc2NhcGU6Y29ubmVjdG9yLWN1cnZhdHVyZT0iMCIgc3R5bGU9ImZpbGw6I0JBMTQxQTsiIGQ9Ik0zNi44MSwyNC4yNmMxLjM4LDAuNTcsMS4zOCwxLjQ4LDAsMi4wNCAgICAgIGwtMTUuMjMsNi4yNGMtMS4zNywwLjU2LTMuNiwwLjU2LTQuOTcsMEwxLjM3LDI2LjNDMCwyNS43NCwwLDI0LjgzLDEuMzcsMjQuMjZsMTUuMjQtNi4yNGMxLjM3LTAuNTYsMy42LTAuNTYsNC45NywwICAgICAgTDM2LjgxLDI0LjI2eiIvPiYjeGE7CQkJPC9nPiYjeGE7CQk8L2c+JiN4YTsJCTxnIGlkPSJncm91cDM3ODMtMTIiPiYjeGE7CQkJPHRpdGxlIGlkPSJ0aXRsZTEwMzQxOCI+U2hlZXQuMzc4MzwvdGl0bGU+JiN4YTsJCQk8ZyBpZD0ic2hhcGUzNzg0LTEzIiB0cmFuc2Zvcm09InRyYW5zbGF0ZSgwLjIzNywtMTIuNjM5KSI+JiN4YTsJCQkJPHRpdGxlIGlkPSJ0aXRsZTEwMzQyMCI+U2hlZXQuMzc4NDwvdGl0bGU+JiN4YTsJCQkJPHBhdGggaWQ9InBhdGgxMDM0MjIiIGlua3NjYXBlOmNvbm5lY3Rvci1jdXJ2YXR1cmU9IjAiIHN0eWxlPSJmaWxsOiNCQTE0MUE7IiBkPSJNMC4xMSwyNS4xOWMtMC4wNiwwLjQsMC4yOCwwLjgsMS4wMiwxLjExICAgICAgbDE1LjI0LDYuMjRjMS4zNywwLjU2LDMuNiwwLjU2LDQuOTcsMGwxNS4yNC02LjI0YzAuNzQtMC4zMSwxLjA4LTAuNzEsMS4wMi0xLjExdi0zLjU4YzAuMDUsMC4zOS0wLjI5LDAuNzktMS4wMiwxLjA5ICAgICAgbC0xNS4yNCw2LjI0Yy0xLjM3LDAuNTYtMy42LDAuNTYtNC45NywwTDEuMTMsMjIuN2MtMC44LTAuMzMtMS4xMy0wLjc4LTEtMS4yTDAuMTEsMjUuMTl6Ii8+JiN4YTsJCQk8L2c+JiN4YTsJCQk8ZyBpZD0ic2hhcGUzNzg1LTE1IiB0cmFuc2Zvcm09InRyYW5zbGF0ZSgwLjIzNykiPiYjeGE7CQkJCTx0aXRsZSBpZD0idGl0bGUxMDM0MjUiPlNoZWV0LjM3ODU8L3RpdGxlPiYjeGE7CQkJCTxwYXRoIGlkPSJwYXRoMTAzNDI3IiBpbmtzY2FwZTpjb25uZWN0b3ItY3VydmF0dXJlPSIwIiBzdHlsZT0iZmlsbDojMUUxRTFFO2ZpbGwtb3BhY2l0eTowLjI1OyIgZD0iTTAuMTEsMjUuMTkgICAgICBjLTAuMDYsMC40LDAuMjgsMC44LDEuMDIsMS4xMWwxNS4yNCw2LjI0YzEuMzcsMC41NiwzLjYsMC41Niw0Ljk3LDBsMTUuMjQtNi4yNGMwLjc0LTAuMzEsMS4wOC0wLjcxLDEuMDItMS4xMXYtMy41OCAgICAgIGMwLjA1LDAuMzktMC4yOSwwLjc5LTEuMDIsMS4wOWwtMTUuMjQsNi4yNGMtMS4zNywwLjU2LTMuNiwwLjU2LTQuOTcsMEwxLjEzLDIyLjdjLTAuOC0wLjMzLTEuMTMtMC43OC0xLTEuMkwwLjExLDI1LjE5eiIvPiYjeGE7CQkJPC9nPiYjeGE7CQkJPGcgaWQ9InNoYXBlMzc4Ni0xNyIgdHJhbnNmb3JtPSJ0cmFuc2xhdGUoMC4yMzcsLTYuMzE5NSkiPiYjeGE7CQkJCTx0aXRsZSBpZD0idGl0bGUxMDM0MzAiPlNoZWV0LjM3ODY8L3RpdGxlPiYjeGE7CQkJCTxwYXRoIGlkPSJwYXRoMTAzNDMyIiBpbmtzY2FwZTpjb25uZWN0b3ItY3VydmF0dXJlPSIwIiBzdHlsZT0iZmlsbDojMUUxRTFFO2ZpbGwtb3BhY2l0eTowLjI1OyIgZD0iTTAuMTEsMjUuMTkgICAgICBjLTAuMDYsMC40LDAuMjgsMC44LDEuMDIsMS4xMWwxNS4yNCw2LjI0YzEuMzcsMC41NiwzLjYsMC41Niw0Ljk3LDBsMTUuMjQtNi4yNGMwLjc0LTAuMzEsMS4wOC0wLjcxLDEuMDItMS4xMXYtMy41OCAgICAgIGMwLjA1LDAuMzktMC4yOSwwLjc5LTEuMDIsMS4wOWwtMTUuMjQsNi4yNGMtMS4zNywwLjU2LTMuNiwwLjU2LTQuOTcsMEwxLjEzLDIyLjdjLTAuOC0wLjMzLTEuMTMtMC43OC0xLTEuMkwwLjExLDI1LjE5eiIvPiYjeGE7CQkJPC9nPiYjeGE7CQkJPGcgaWQ9InNoYXBlMzc4Ny0xOSIgdHJhbnNmb3JtPSJ0cmFuc2xhdGUoMC4yMzcsLTEyLjYzOSkiPiYjeGE7CQkJCTx0aXRsZSBpZD0idGl0bGUxMDM0MzUiPlNoZWV0LjM3ODc8L3RpdGxlPiYjeGE7CQkJCTxwYXRoIGlkPSJwYXRoMTAzNDM3IiBpbmtzY2FwZTpjb25uZWN0b3ItY3VydmF0dXJlPSIwIiBzdHlsZT0iZmlsbDojMUUxRTFFO2ZpbGwtb3BhY2l0eTowLjI1OyIgZD0iTTAuMTEsMjUuMTkgICAgICBjLTAuMDYsMC40LDAuMjgsMC44LDEuMDIsMS4xMWwxNS4yNCw2LjI0YzEuMzcsMC41NiwzLjYsMC41Niw0Ljk3LDBsMTUuMjQtNi4yNGMwLjc0LTAuMzEsMS4wOC0wLjcxLDEuMDItMS4xMXYtMy41OCAgICAgIGMwLjA1LDAuMzktMC4yOSwwLjc5LTEuMDIsMS4wOWwtMTUuMjQsNi4yNGMtMS4zNywwLjU2LTMuNiwwLjU2LTQuOTcsMEwxLjEzLDIyLjdjLTAuOC0wLjMzLTEuMTMtMC43OC0xLTEuMkwwLjExLDI1LjE5eiIvPiYjeGE7CQkJPC9nPiYjeGE7CQkJPGcgaWQ9InNoYXBlMzc4OC0yMSIgdHJhbnNmb3JtPSJ0cmFuc2xhdGUoMCwtMTYuMjM5KSI+JiN4YTsJCQkJPHRpdGxlIGlkPSJ0aXRsZTEwMzQ0MCI+U2hlZXQuMzc4ODwvdGl0bGU+JiN4YTsJCQkJPHBhdGggaWQ9InBhdGgxMDM0NDIiIGlua3NjYXBlOmNvbm5lY3Rvci1jdXJ2YXR1cmU9IjAiIHN0eWxlPSJmaWxsOiNCQTE0MUE7IiBkPSJNMzYuODEsMjQuMjZjMS4zOCwwLjU3LDEuMzgsMS40OCwwLDIuMDQgICAgICBsLTE1LjIzLDYuMjRjLTEuMzcsMC41Ni0zLjYsMC41Ni00Ljk3LDBMMS4zNywyNi4zQzAsMjUuNzQsMCwyNC44MywxLjM3LDI0LjI2bDE1LjI0LTYuMjRjMS4zNy0wLjU2LDMuNi0wLjU2LDQuOTcsMCAgICAgIEwzNi44MSwyNC4yNnoiLz4mI3hhOwkJCTwvZz4mI3hhOwkJPC9nPiYjeGE7CQk8ZyBpZD0ic2hhcGUzNzg5LTIzIiB0cmFuc2Zvcm09InRyYW5zbGF0ZSg2LjM2MTUsLTIyLjExMjMpIj4mI3hhOwkJCTx0aXRsZSBpZD0idGl0bGUxMDM0NDYiPlNoZWV0LjM3ODk8L3RpdGxlPiYjeGE7CQkJPHBhdGggaWQ9InBhdGgxMDM0NDgiIGlua3NjYXBlOmNvbm5lY3Rvci1jdXJ2YXR1cmU9IjAiIHN0eWxlPSJmaWxsOiNGRkZGRkY7IiBkPSJNOC4wNCwzMi4zM2MtMS43NCwwLjc3LTQuNTYsMC43Ny02LjMsMCAgICAgQzAsMzEuNTYsMCwzMC4zLDEuNzQsMjkuNTNjMS43NC0wLjc3LDQuNTYtMC43Nyw2LjMsMEM5Ljc3LDMwLjMsOS43OCwzMS41Niw4LjA0LDMyLjMzeiIvPiYjeGE7CQk8L2c+JiN4YTsJCTxnIGlkPSJzaGFwZTM3OTAtMjUiIHRyYW5zZm9ybT0idHJhbnNsYXRlKDEzLjIxOCwtMTcuOTg4KSI+JiN4YTsJCQk8dGl0bGUgaWQ9InRpdGxlMTAzNDUxIj5TaGVldC4zNzkwPC90aXRsZT4mI3hhOwkJCTxwYXRoIGlkPSJwYXRoMTAzNDUzIiBpbmtzY2FwZTpjb25uZWN0b3ItY3VydmF0dXJlPSIwIiBzdHlsZT0iZmlsbDojRkZGRkZGOyIgZD0iTTAsMzAuMmw4LjkyLTEuMDZMNi41MywzMy4xTDAsMzAuMnoiLz4mI3hhOwkJPC9nPiYjeGE7CQk8ZyBpZD0ic2hhcGUzNzkxLTI3IiB0cmFuc2Zvcm09InRyYW5zbGF0ZSgyMS44NjQsLTIxLjg5MSkiPiYjeGE7CQkJPHRpdGxlIGlkPSJ0aXRsZTEwMzQ1NiI+U2hlZXQuMzc5MTwvdGl0bGU+JiN4YTsJCQk8cGF0aCBpZD0icGF0aDEwMzQ1OCIgaW5rc2NhcGU6Y29ubmVjdG9yLWN1cnZhdHVyZT0iMCIgc3R5bGU9ImZpbGw6IzFFMUUxRTtmaWxsLW9wYWNpdHk6MC4yNTsiIGQ9Ik01LjM0LDMzLjFMMCwzMC43MyAgICAgbDUuMzQtMi4zN2w1LjMzLDIuMzdMNS4zNCwzMy4xeiIvPiYjeGE7CQk8L2c+JiN4YTsJCTxnIGlkPSJzaGFwZTM3OTItMjkiIHRyYW5zZm9ybT0idHJhbnNsYXRlKDIxLjg2NCwtMjEuODkxKSI+JiN4YTsJCQk8dGl0bGUgaWQ9InRpdGxlMTAzNDYxIj5TaGVldC4zNzkyPC90aXRsZT4mI3hhOwkJCTxwYXRoIGlkPSJwYXRoMTAzNDYzIiBpbmtzY2FwZTpjb25uZWN0b3ItY3VydmF0dXJlPSIwIiBzdHlsZT0iZmlsbDojMUUxRTFFO2ZpbGwtb3BhY2l0eTowLjI1OyIgZD0iTTUuMzQsMzMuMUwwLDMwLjczICAgICBsNS4zNC0yLjM3VjMzLjF6Ii8+JiN4YTsJCTwvZz4mI3hhOwkJPGcgaWQ9InNoYXBlMzc5My0zMSIgdHJhbnNmb3JtPSJ0cmFuc2xhdGUoMTMuODk2NywtMjUuNjE1NSkiPiYjeGE7CQkJPHRpdGxlIGlkPSJ0aXRsZTEwMzQ2NiI+U2hlZXQuMzc5MzwvdGl0bGU+JiN4YTsJCQk8cGF0aCBpZD0icGF0aDEwMzQ2OCIgaW5rc2NhcGU6Y29ubmVjdG9yLWN1cnZhdHVyZT0iMCIgc3R5bGU9ImZpbGw6I0ZGRkZGRjsiIGQ9Ik0zLjQ4LDMxLjU1TDAsMzEuMjRsMy4wOS0wLjc4bC0wLjQtMS41NyAgICAgbDIuNjIsMS4wN2wzLjI0LTAuNjZsLTEuNDgsMS40NGwyLjQxLDEuMTdsLTMuNTQtMC4xOEw0LjE5LDMzLjFMMy40OCwzMS41NXoiLz4mI3hhOwkJPC9nPiYjeGE7CTwvZz4mI3hhOzwvZz4mI3hhOzwvc3ZnPg==;" vertex="1" parent="bPEXhzp361YjIitsZas1-65">
          <mxGeometry x="291.2573214285714" y="19.25" width="68.77107142857143" height="57.910714285714285" as="geometry" />
        </mxCell>
        <mxCell id="bPEXhzp361YjIitsZas1-12" value="" style="shape=image;verticalLabelPosition=bottom;labelBackgroundColor=#ffffff;verticalAlign=top;aspect=fixed;imageAspect=0;image=data:image/png,iVBORw0KGgoAAAANSUhEUgAAAHoAAABCCAYAAACYcMIkAAAgAElEQVR4Ae2cd3yW5dn3+3mfvg9k74QlWreSe9/JnXvPTGYIKButgIC1WsVVcYK1Vq2juEfRVluVPtZZF24FRZasQBIyIYzsPfk+n+O8cgtasfjWVt6aP87PdY9rnr9j/o7jvH4UZ/QzOP7z5+BHgyD/54MsGA8C/QOxaINADwL9wzBpPxTXNajRgxo9qNH/Sdo+qNGDGu0jzqiNWKOfr47D0u4j1uQhzugd2F/2DRBj0oYcJ/vG/0Am9PC8HF8W8aganWD0kGhwEW/0EGPyEWUOEGEKEGkKEmMMkGgMkKT3EW+yE2FLJ85sIsXkIk7nI8aSz//JKOC/MvMZagqSpPMxIl0E4fh6+B/S/RwV6Hijl0SDm3ijewBoP9GWIJFGL7EGDydk5VC48ApueOBx7nn+Oe7545+ZMHMhZ9vHkTDGR5Q1lx9bQ0RYQsQb/AwzBgeB/h4F/RuA9iFaHTeg0dFmH9EmL4lWH6Md2Vxx+328u2knu+taqWpsZ399J599WsyNN96D2T2BFDnO6iPC7CPWEiJWP6jN36cFOSrQX/hnkwDsI9rsJc7sZlimlyk/u4wde+uo7+hhX2MHpdVNNDf1c6gTqkv3cfmS6zjVYmekTY51EyWWwDSo0ccp0FoAFmPyK5BjzKLdDk735/Ho8y9xoK2DAw31/Okvf+WCy2/k+dc+pK6+nb4eqKqsYfa8BYw22kgwOAb8e2jQdB+PplukTyJmATrG5CXW5CbeYOfsYAHPv/sBDR0dbNi4nkmzZjPSm8NJvhB3/vEpSusOUN/RyqtvrcaeM55hBgcJJjHf2YNA//8AdIzJQ7zJycmuICtfeIWDbW1U763h2t/cRrLXT6TVyunjCli28jF21ddT09DCFTf8mjGuPJJ0TmKVvx/009+X+f6HPloz3T5Nq41ORtn9/PymWyndd4Am0eqSEmZeez1pLg/RGRmcPWES9zz7AhUNXXzw2U7GzVzIcLNLmf3v6yEHr/uNZUohS8RkS0Al5luIETdxehvpwQKefvkNapvaaGzvZlf1AaZdfDlpWV7izS7OCBbyhxc/ZFdNB3etXMWp3hCxxoxB0318mm4fkksL2AK0pFdivmP1DlL0NrLyC3nlvTX09QIth6ioamTGJdcxIjOPVGM2J5sK+PNLa/mktJb5y5YTa7UMAn08Aq1RnodpUGHIEoRASXeQYnQx2hbAdc5c3vh0M309fXT3dLGtbBcLllzNT6whhhnGMSZ4Pg+/9DFPvvketkmTiDd5SbIGVG4eJwGe0U2c0KdfHYp6PRZ/7lXMXaLBo1i6ZJ2fJL2fRL2feEOAWGOIaJNE+wESDX4SjhhC4hw5xLzL9/B+8j1WWTItKBUKV84bvsaxuoPD96OdR86pRvh6eu2eRZkizX6ihK8we5WrlEwnxuzWLKlYU5ObaLOHSIuHKItHfZbvSgEVDe1R8yFYaelxeA59R+8wiTX6kCEHiGYnGL3E693EjHGQahUK1M1IezbZs+az+sM1tPV00NLdwsebNjLvihsZZRnHMPMEMifNY/mjf+Squ+4mKcNPgkXMuwayBrT2APIQX4xjBDrWJBZHBFCA9ioQBIgw0ELVRptEsL4MsgAuoH4VLAW0XttX/lPxyQDY8j0MdPIxkj8iHAK0DDn34SxmQHgMh/8X8MMuUstyxG2GlUBjKIWljDK7ibRoI8oiwLu/JAyyj4zDtQfNBf+DYEwz3WETrny2wUOCOaBo0ERLgNH2HEJTZvH+pk3UtjVS39PJ+tIqpi1eyuiMAkZYglgnnMNtTz1D1owFDHfmEmd0E2t0ES+5+ZEAhz8fI9ASN6jYQYTR4CNxYCQYRDglphj433TYMoWJINmGhTm8lWO+eqzGCGr7yv/ha3xVSI72XfaXc6rrKeJJNFa7N/lN/gvvI88g11CKNXCc+k1+HxiiwQJweBwNaE2rNfwEt6MCHb5gGGRt0vzEW7MZOsZNki2fBGsucQYfaSYP2bPO56Pi7Rzo6aCht5fPd9eSP3MhIy1eUq0uTgrmsfiOB0nKCChTHaVzKM3+Z4COVqYurAmioWLKw0MTIgkgxbSJlhxtiGXQrIN2rBJo2d/sVWY0bErD+2jC8vcW4evAPjx/2vXlXF89n+yTaPAqqySWKVHv/cLNiAuKNwS/GPIMAm54xJg0064C5QFF0bRazPgxAp1g0B48DHKUyU+EUfxINhF6P5EGqWSFiNf7GGHzkz33PN7csI52oLm7j3fWbcY3dTZxhiwSbD5OzSkiNSubGIOTaL3k1q5/SqOlohZpDhBlDoMdNndhNyDndymgwxMcnuQjQT8M4OGJkd+OBPrLx4uGHhvQch51rgFBC58nfP3w/1JXSFBm9zBAmqUJEGMMEm2SEVIWTMANjyMBPlJpRKMPA/0NPlozKWGgJer2E2nyqYAh2hwiSvyOKZs4CVBMAc7IKeSUQA6TFi1kzfattPf2Ut/eyfV33cfJvjyiTE5VEPmH/lmk8iimO1bMlylAtE601U+00UuUFE8kIzD7iDI4VeBy+OGdiuSRgCbKfETwIp9lX+XLxKd5iNNLSdZNgkme2UP0gMWJNXuUr5TASDObshWB+MdAK6DkeFUn0OKSGHFbkr0MDM3aeIi3iMa7iJVt+FpmL1EWmXMfkRatQCTHx6vASxNmLeb5GheoArKw4H5DHq2AlnrzgK8TvxJl9hIpF7L4idW5GWXLxTpuJhfdeCfLn1jFmPFTOMnjZ/rPL6akupLWrm5Wr9tIcPYC4o7mj8N++cjt1wAtIKvJlag1/FnvIklx8ELIuIgxOpWkhydRJFzAE+kP+7IvolgBVYbBrcqxiXqXVpaVrWjXwDZ+oFQrwiPnUL5RXfMfA60E1qyBKODIuRJNYc3VgJLzyogSy2PVzHKU2UW02aWUI9oin53EqN9EcAfueSALknhHjSPmTzunCNbh2OSoPloiUy16lXRAbsBDpEic2Un0GCtnBcaTN2shT7+0msp9TbyzrRzLOecRZbChzxvP0y+8SHNbO+X7G7h42R1aJHjEzRxpZv7u81GAFm0Ogxxj8DHK6ucnWUFOcoRINjlIFAZOTZxojPaQmqAeTlNkEgT8ZLOX4ZlBTrTncVJWLiMsAdLEv59tJ9Xk5WRnAae4xzHannu4Lv//ALS4pwSzl2G2ED9xj+UnzgJSJEswaIIWBkmqfGI9RKuTMryk2fyMcAQ42Z/LaYE8TvPlcKLTy/AMHylmH2nWgBLGWLE84Uj7CH+tuQYtuv/GYCzBECBRL0FAQGPHVABgJ86UyYgMBxddv5x1O8ro6jlEV3Mza7aVkj5hBlEWP6NcuVx87c3UNbXQ2NnLvX9cRZLB8fX++OvA/xqgY/ReZa4F6ERriBHOccz5xbVceMV1BM+ZQ6ohkxSzmF+XEkythUnuX/Jo8ZNO4kxO4o1OEoxORmQG8E6bz9wrlzP9kus4w1lAWrqTNIObs3wTuPq3j3HdvU/gLvopKXoniQbteNEu0exjMd2i0TF6O6lWH75ZC5m39DfMuOR6TjD71TmTDNq9yD1LMBZ3toM0s48TbSE8RXNYfN0tLPvdQ/z20ZXccs8KLrriKmzjzmWULYcUo5dk1QWkCYyALUIe9t2SjYhfl7aubwRaAE7QS3dIGGgX8VYHp4ZyuenBRyjZX0dzZy+HurqgtYFPNm/DNm0BPzb4SHbkM/H8i6ita6KrH36/6mVS9SIk4SDpH2y/DmhD2BT5ScnMZcy42byzfgfVdS28+ckmsiZMJSE9QwGpAhzpaDHkEGeQdM7/JZBlggMzF/HsexspaTzEm+vL8E46j+FjnJxiz+Xim+5mW20npQ2HWPGnV0nTOZFjpKgTo8zosQOdYHSRZvWx7NFnKWmC1RvLOcOezzCd8wsBkn1S0t2c5Z7IuQuv4S9vfUrFgU4ONPXQ2NJNc0sHrc0ttNQ3ULyvhQf++i45511CislHkgRdA+7ly0BLgCrUc0AFZT86MiIMR4Iq2DBIkJVDhMFDpNXFMLsXz6SpPP/C3zhQc5COzh4OdnbS3NkB7e18/PkODFPmMiQjm2THWCbPu4zafc109cDKZ58nTWf9ShJ/2H9owVf4eziA+PJWq35J0OElKSOIbsIs1u+soqMHausaufP+Bzk1w0GyLot4yZ8HMoM4U5AIMYmZfhLT3Yw0+jjJ5mfZA4+yt6mNnm7YtLUS79QL1KSNyszm3F8sZX1tI+v3NbH898+RJNyB0Ue0zkmcAG1yqEAw2hJiiMFPjDWkrEiiSTRULJeHocYAEdZ8Ig0hRmQEuffJZ2npg82lVZzpKiAu3UOCsHZ6D6kGFxnuPH5z98Ns3FlNeX0nO/a18O6WUla+9Ab3PPkMT7/yBh99voOSug7KGnt4b3MxV/3qds50BRVTGWP0qOxDLKq4WY1sEfpaa9L8kVL1I/IyFXCY3cSbA0SP8RIrlKXNjW/GXJ554W+017VBWz8lu8r5n7ffpuzAfmjv4uOtuzCfO5eh0mrkn8A1t66goaGbhuYufvvwStIMmcdo7kT7/j6KPJyKeRTDlj5hJp8VV9DdC23tnRSXlJA/ZRqjrSLhHqKFFZNnMHoYkuEl0uojTednxNlu8uYsYPXGjXRJl0RbF9s+L8M7fR7RRumgCXFaoIDFv76dS+/6HZbCmQqMGMWGSanWToI5ixiji0iJ/DNyiBCSw+QmxWhTI8bgIMKSzf+1jmWocSwjrEEeePIpOnu72FpaypnufGJ0AkAuCcYgJ2YGueXWuyjbXUNNXSuvrtnIoptuwzPjAtILijg9OA7D2CJ8M37K0nseUSDXNLVQuqeGC6+4mp84gsq9RiihDhClSsqaGxO2LcoUQgNabPtXwBZNFwpPzIJx7FSeW/0R+1t6aGjpprR8Lwsvu5pF197A52UVHOroYu3WYqxF04m3OrFOPJc3PvyMjs5DVOxt4OIbbyNe5/jOgd5YUkljSzsluyto6ezmvif/hD44QWlmpM5FnCVIlMFDRIaPaIuPYTo/p1pyuX/VK+ysq6diTzX9Te1sEaBnzFd5s6RWiQYbaaZM0sw2Ui1u4gxeIsdIEOcl0ZhFmiWLFLOTWIOTpMwckjOzGZbh5wSri5FmB3G6LKLNQSIyxhFhLDgC6G62lpZxuiuPOINYgVyGZeYxdu5FFJfWUNfcxcvvrCU07XzSzE4SJZBTDR9O4tJtJOmzOCHTx8QLFvNJ8S4ae7r4YPMWgjMvUHWEoXoBVVytlwTT0YD+kiMXp+5SD3JiRpAnV73FvqZ+mvthfVUt3hlzOcnm5dzFS9haWkNXSzvrthVjnziZ0z0+fnn7HbT19NDde4gX316DveinxKjiwrGkJMeu0Rt2llO6u4p7H3iUPQ2tlB5oYsqFl5IqRIxeInAvUXqtCBBn8TBKH2DS7F+wvqaeTysqWfHYo3Q3timgPdMuIEqiVqObJGMW+uwCjLnjGW0Pkmj2EWcOkJIR4IxAAWe6A5xospGiy2SY1U/m5Llkz1mILb+QE8120kwulesPMWQTacxnpNU/oNEa0Ke5B4A2ZnOqfxKPPf86B1p7+bx0D3N+fjXJ6ZkkGoVUcikrE2f2kmiWWoODJJOLE7I8TP/ZxdR1dVDf18/1Kx5hlCOPKJ1YlhBCdCVITGF0Kf78C40O53IqWBoI1WONDk4LjOOqZfdyoLabjk7YULaP/EWXkOiWll8bhQsuY2vJHro7u1i/ZRvzL1/Cbx56gLJ9NXT2dVF94IDS5hHOCQwx5X3nGr1hZxlbduzikquu574//oWqtn4e++vr2MafQ7I+i0STl0idR+WoCQY7Bnchz7z6Kbva+vndqv9h5oUX0tPaxedbNNMdmyEUb4DT/fms3rSDtzZup/CiJSRlCgvoRj9+GitfXc3fPvoE39gJXHLDr3n5k21s3NPCtv1tbN9bz59eXU1o+jxGZeUTY8wh0pirgL7/yafo6O1hS2k5p7kLiBNa0xjCMn4GxbUNNPbCHQ//kbM8+cSNySJBuAqrsH4+oiRrEF5cZQ9uUqxOTLn5PPfG36jt7OTFNevJKjqPWJ1GnaYIJ6//CtACsvKJA4m3TI6Y6xNc2Uxe/Au2lx2gtx0qK5q5+rb7SHUFGGp3qny5aMEStpXspbe3l3119Xy6ZSuVB/fT2NXK3sb93PXYo5jHTSXWksdQy/jvHOhNu8rYXrqbGRdeQu6shWyoqmfLnnouvelWTjQ7SDa4FC8frXeoAGzez2+iog4+KN9P0SW/YPys2XS29rB5y27lo6MsXuIyg+hyCtlV28T2mnouuHa56n6NMLmwFs3k9U83s7e+mf95+VXeWb+VFz7axAOrXufxF1azoWwP5fWtrFq9Bvuk80g0hogy5qp8X4AWtvDz0gpOcxWobGZYRi5Fi5bQ1Ae17f3Mv/omhhmdxAs9bNHKlorilQraQOFGiKs4k4MzfSFuuucuatpa2VC5lyk/v4Z44cj1PlIkBf1aoBVL5CFJbLteTJcHz7nn8dLH6+g8BPUHe1nx0J8x5xQSqbcSabUzwu5n/pU3s7u6jr5DvfQcgs5+qGvvZEt5GXc+/iCG3GxSJBAy5xJh/hcAXVLK9rJyCi/4GSMzsvnV46soqWvj5Xc/wp4zllRdFlE6KTs6cYybyktvrGNvC9y88llOy8kjd8Ys2lp72bS1As+0eUQI/ZgZRJ9dSHltMyU1DSy4drkiiYZaXGQUzWD1Jxto7+xV1731/sfxTjkfU965mHOmsPCqG9m9v4ld+5pZevdjJOuEas1hlMXP/U8+rYDeXFbJqa4ChKc4yT2eS5ffSSdQcrCZqYsvJ1nSUKOwYjJvArZWahVeQCpY4oMlEDzZ5WfR1VdR1djAroONXHzLXSSb/AroRJ0HYfq+ZLrFXMfK0hu9SyXgyQYPIzNC3Lzicfa1dtHcA6+8s5ZA4UxS0zM4IcvHyZ4g51+xlNc+/IyG1k66+7ro7O1nb0MHL7/3CbMuvYLRTjuJVitRRruK+iLD+ewxcMTHGnVvLtnF1rLdyoVIvp856Xze2VTMzqoabr79DkYZheTIYbjVx0VX38ie/T1sLGnEUjSHeKuN0MzZtLT1sXFbBZ7p8xhq8RJlC2EIFVK5p5ny6noW/nIZsWYHQ6wOMoum8c7az6g72MSvVzzI6VlB0kw+EnQeUvUeTtBn8cp7a9nfcYg/vPK2Il9iDCFOsPgU0G19fWwqq+QUpdE+TvNNZPmKR+k51Mfmyr0UnLeQZEMWErVHW7yK3xawpa9eUlDxvdFGKSR5GW1zc+78eVTWHaCiqZVf3vMQyWahpiXrkKBRgscjfLRQcGKqRYsTdE4Sz3Yw9qeX8d76Ytq6+tm1r47c8y5gVJaLMcECLrj8Wl5/dy0HGttp7e6jo7+P1q4WqmvrWHL9Heh8kxS1GJvp4scGM1FWl/Iviaacf4HpLmbr7t2Mn3+Z8ocp5myW3fsQVbW1bNu1E1vuZBKtY/FNn8+bH67jYF0/19zyIKdlFxJjsRGYNYem9sNADxkA2hgqpKammcqqehZdczMxliz+22ons+gc3l/zKfv3HuRnN9zKCKufyDEeovUBVVdOTc/k7t8/RWVTOy+8t4af2ISCDB4GurefTWVVnOIuIF7n5TTPeG6++z76D/WwpbqW8fMWkWy0ESNgqy4SoZ616pdkA0KbiuAIASTB8OxFi6ipP0hFYxNX/fY+xftHq30kR/8aoMPEfqrRy0hzgBXPvsme+m7q61p46NlVmKYWMe2663j6nQ8prTpIV1MP/V39tHa209zdSmt3C5t3lBGYMJdhhmyG6nz8l9XDf9vdDDHbVbUlfowUHr7bqHvzrmK27C4n96eXEmHMJcEUxD2uiFdee5WDjXXc+djTnBKayY33P0llbT2ffVaKLXgOyRmyjiwL/+y5NLX3s2FbJe7p8xhi9RKZFUKA3lPdTHVlPYuvuVnt+98ZNmxF5/Dhx5+yv+Yg8669lRGOAiKN2USaconUeRlhdnPbw7+nvKGZv773EWe6slXQ9YVGDwB9qnsc8TofJ2blcNHVS+nv76K6tZ1Zl11JiiFD5epaEUPSXuEUtDauZL1kQiGVe5/uzOGqm26mtqmB4tp9zL9uGfES7YvJNwhz9xXTLS0siTJ0TkabvYyfuYCNO6toa+9lb9Ue7n7wYR5+4QXWVFRR3dVPcx/sOdDM6+99yB9eeJ7yA3vp6mrjsy27cE+cS6IhqEx1REaACIvwwk5VXUn8GlrzqMAfI2GyubSMrbsrmTDvEmJNQeItQUZl+Fh87Y3s2rOPrZW1LLzmFj7csJ1dlbVcuewuhlvFxzlINNnImz6X5rZDrNtehWPGfAV0tC2IKTRJ0+jKBhZfc9h02yZP472P17N3bwPzlt5Kmi2XKHMOQ805Ko1JNmbxm0dXUtHQwisfrOUMR5AIS4ARGV4eeOLPdHXD1pJqTnPlE6v3kGL2UzBzPk2t3TR093HF8ts42SaaqylHjGqskPkU4meg18wkbVxedP5xPPjkn6lr6WDd1hImzF1EikHj+SOk4UCqXFLRCxMmwodKfTfV4Ob0TB+/e+Ax6g7W093Rwab1G6ioqKK+tZMDHX2UNbTxQfFulq54EOv4ScxcciUby8o41N3N+q27sBfOUWZa2BiVtKsCgmiymJ9j1GbFSx8bM7aptJId5dUUzfuZ4qJjzX5FkhgmzOLptz6iqfcQW7ZtY//+el5//xMMY6cQlSkSn8UwvY2JU+fS2trP2uJKsmbOVz46PiOAOTiR6j3NVFQ1sOia5YrjjjC7sE2eydtrNlFd28TCpb9ihC2HKFOQoVKfN0mRwcbtj62kuqmN1z74lLMc2fw406fWqz248hl6O6F4ZzVnuPMREysVNkPuuXy0oZyGth5efOtdHPmTGWZwkaCX1NBHpClbrUyNsuYQZckmUpfF8AwP9gnnsr5YsDnEn1a9hi0wkRF60WQv0ULJDix7liBOMP5RjGiCRHRnZ2EJTuTz4nJa2zro7e2jo6eP1u5DNPbA2uJylt7zENaxRSSlmxluzmTSoovZvLvi+wO6pIId5VUUzbuIZFUd8xNrCTDckUdo9oXUtvXQ2N5JWdU+Lr9B2Dk7Q6TylOElVZfJhHPmqGBsbXEFjhnziDR7SMzwYw5NpGpPkwrGRKOFv5Z6cVbhTN5eu5Hq2kYWLf0VI205KjiKFGUxekkxZHHHo09Q09TOa++v4yx7DkOsPlVafHDls/R0wY5dNZzhGauAlqBKSqFX3bKCqoPNVNY1s/x3j3Ci1adWoyaaA4qKVkoyoDypJidjAvn85vGnaOiH6sZuLlxyAyfonaToXKgqn1U4CwnIJD46Amjp+zrZNZbzLr+Ofa3dtAt/3Af7O/tYs6OM6+9+CEt+ESfagoyw+lSulzwmg6KFv2BzaeX3B3RpOTvKK5kybzEpkpZIR4ayHl7OzC7kzpXPULynjgf+8Bd0vglIM+NQS4D4DD9pejvjzxUf3ccnxeW4p59PrNSCrQL0BCr3NrC75qAKxhKNDmKNTuyF03l77Qaq9jUooEdl5hBrCBJtDBFr8JKmz+KOR56kprGDv73/GWfZxbT7GGn18cDK5+jshi0lezjFlacEQ9aap1j86AITWP3pJva2dLJjbz03rXiMs3xjGWHxkqizk6DLJMWYRarRjnP8VO56XNa4tbK/Fx76y6uY8otINUkDhY84fZBYfY7WyqyaLr4AWjo2vJwZmsz9q/7G/m7Y09zBu5u2c+mtdxGavYAzA+MZkRlSkbnUQcXMp+ocTL7wcj4vq/negN5QVsG2ikqK5i0iRS9VKy+x0qFqDpBk9qHLmczUxUsw505hhDVEtMFHpJhAg5cUvYOCaXOp7+xjbfFufNPOJ8HgUhNvCk2gbF8DJXsOsvCXNytrIatCHZOmqzy6Yv+XgY4xZqu+ueE6B3c+8geqG7t49f2NnOnIVwHoCRY/9z3xHK29sKl0Dye7CxD/K0UXoWmT9Q7GzZ7Ha2vWs7uxnV317Tz3zlqWPfB7Flx7M9N+djkX3bCc2x//A6vXbKDqQCvl9e2sfPUtsqbOYpgjSJxqow6SYMgh5qwgCaoI4z5MgWqdGF7ME2fz7AcbefmTz7nt4SfJnbOAUwPjVeuL1mQmbUV+Eo1+kvVeUtKdFF14JVvK9v6bgD5cw5a+M93EWawrq+DzyioK51+kiAbV+2UOKkAl0JOWIKETk6X/W3yeChTziDOFSNI7yZ1xPvu7+li7qwLvOeep9EUCJEP2RHbub2R7bR0Lrl2muHPZP2vCNN74dCMlB+pZuPQWRmZmE6sPqJRHCJDhOid3PPIUlY3dvPj+Jk5zFJCoC3CiNcS9T66ioQ/W797LyZ5x2ipVS0gBHmd0MjrDzdg5C1j50pt8WraH3c1dlDW2s622js2VtRTvq6OyqY2agy1s2L6bh595EefUWaTapafMSaRFhFwi8hzizg4p4kQCsi+qV7Fi6vQubOdcwNX3PYFjyhxGWcQMOLSmONW9KM3ssvJB6ziRhnQplE9ecCVby2r/LUArYkf1g2s94WfkT+WFtet5ae06cudeqHWwqGBE7nNgDDT4S5O/apA35hBjzCfWkK3acDznzGFNWQUvrNmAc/JckoRs0Hk4KzieN7fs5I3NO5h26TWkSmCT7sJcMJWVr77J21u2M/vyX5ImmcUYDzGGbEV3pulc3HDXI3y4vYoHVr3BaFseKbogww1elt7zMOur9vHXNRsY7cxT96gCYaE3zW6SjU61GHFMYCwzLr2KR55/hXVl1Wyvrad4XwPb99bx0fZS7n/iGabPu5gznCESDVlEGqUk6iHCIh0l0hocIkkn/0nkLf1mwq6FUI0HwoxFp9uJM0ja4UIK6MKqSCOCSIScQG5KtfYa5CU1fpLTXRReeMW/TaMll4yR9EHabqw+bbXHGLOKdON1NpKkwe5sp917BVwAAAVQSURBVHqFhvZWJG0FqNZlKdU4acKXrtV84g05xOs9xKZbSTFLDdlB0hgXSbqAylFj0iW9sZFsdZIsflssmKy40LmUr0wxWog/20iK5OOmoGouiDMEGGbwkjrGxnCDUwVT8uKepDFBUiSVMmWRas0k0ZSJLCGSXm1ZMqStVh1gJw3SsmRXa9vS9JmMMtsZ483FkltIum8cI4wuRursjDLYGW5yqfRJauiq8GHWVpZoq01kUYBLZQvCjUcI0DKBMnnJqrFeWknDJlIqJtrB6lVSEnAYw+uYZPmLk8ILl7Bl955/i0aHl+8I2OF7lh6wWJND9YnH6KV2K20zWhon1R4Fsqqza73dIu2JujwS9NnaigiLNDvalXtKMWaTqJcFCbkk2XKIsbqINGapNCXJmE3CmADJaimPnaQMO8NsDoaMyVBvaoq2iIaKO3CTqneqYopEvfGWbJLSQ8RLZ4rJRkKmjVhTplpCJP14ch9xQmmqHvKAKoXGSdOgzkGa0ckwk4sR0lgoNGu6NPb7SZbuEZ0NaQoU/iNe9YRpy47UNVXdQjpdRFgdalXIUMsA0GIWVTuurCIQCVGTKfxqeNI0sy2mW36TtU7JOgeFEozt/vcEY4dNt0s1/8t36dWWFmRhgyRVEWZMA1q0V/qkpUXXRbRFBEJy0yDJ6bkk6QRoWYjg1ChamTC9mPMCYgz5RJmDDLG6ibDK8VJMyCFBJ1ZAiAsxh5kkZWSq44eaJY/OIdaUTZJBC6ziZYGCyauEIEkvfWtuoi02IjMyiLYI0F5lXuU+EmQRhCpghIhUBQuf6i1PNmmUZ6JeWLEAMXpRNOmP9yp6VFkoWVAoplofUkIguEjzY7wpiwRTpmLYhELVgFYsilcVuYXkiB1ohpdIXHq7pWIiqxHDfk+R61Kc19mZtPAyNpfvoa+nl3XbSrAXzlITLOY+vJ/0Tiuzq/zlsZIm0i+mvRHpi608oKL2hFsWEsZDtEVWjgjQAqycO6zRcs9C0mgrDYVOlHKstDDL5CbqNb44SkCzSCtwgDjRLtFoU55ajTJUUjVlmiUrkWJ+jnILAqAITpw5SzXbR4hrs2SrBQ0yXxK5S/0gxiKCFCDJmEOUzkWU2UFMpjCFDm2dmD6o7kNAlIA4SpEuQZUxJIhwieCKn5XuV1mpYcgmypCjvQJMnktybJNYBTmPdOyKAkpXkFg8hwJZQNeEKPhNa6/kQtqyDglkvngToEmibzcJejsTF13OxvJaunphzY4SbEXTVVutSJvqIlXLVGXCtValsIUY3B6rwH93+x21gV+TqEGg/1OEchDogTjkPwXQoz3HINCDQH+Nj5a39qqF2rIIzaH56IpaOnsPDfro41xgvp1GGwNIv3SCSXqfHRRdfBUbK/bR0dPPR9t2kjVlhlrFIOXCwWDsuwukjmaOv83v3xJov+qTljXEqRYPkxYvUUB39hzi4+27yJo6k2iDnUGgjy+QRSC+JdDC3viJM8jqPwehOYt4e+N2Orr7+WDLDmxTZhBnFhZqML36Ntr279j3WwEdK2/4EU5V51B59Om+Ai6+7hY2bd3B+59vJ3PyNJVHSxF+0HQfX1r9zUAPvAdDWCdVKFB9Sz5F6cXp7OqN+6c7Q1xyzQ2seudjjOOnqrcOHAm05OODhMn3D/pRgf425iQ1K4/gvCsY6Rqv3kgQfivBtznH4L7/WmH4ToAWYBMsWsFDqkbqZTLHebrxQxOsfxpozazLKxy86o1BstVekvKvldAfGlD/7PP+00CHb2BQi49vwf5ugJZW1CNM9qCPPv5A/26AHvTHXzRphC3c8bb9X9/f0qQRTujPAAAAAElFTkSuQmCC;" vertex="1" parent="bPEXhzp361YjIitsZas1-65">
          <mxGeometry x="161.98214285714286" y="19.25" width="102.39285714285714" height="55.392857142857146" as="geometry" />
        </mxCell>
        <mxCell id="bPEXhzp361YjIitsZas1-13" value="" style="outlineConnect=0;dashed=0;verticalLabelPosition=bottom;verticalAlign=top;align=center;html=1;shape=mxgraph.aws3.elasticsearch_service;fillColor=#F58534;gradientColor=none;" vertex="1" parent="bPEXhzp361YjIitsZas1-65">
          <mxGeometry x="386.07142857142856" y="12.833333333333332" width="56.651785714285715" height="69.66666666666666" as="geometry" />
        </mxCell>
        <mxCell id="bPEXhzp361YjIitsZas1-27" value="存&lt;br&gt;储&lt;br&gt;层" style="text;html=1;strokeColor=none;fillColor=none;align=center;verticalAlign=middle;whiteSpace=wrap;rounded=0;" vertex="1" parent="bPEXhzp361YjIitsZas1-65">
          <mxGeometry x="8.392857142857142" y="0.9166666666666666" width="33.57142857142857" height="99.91666666666666" as="geometry" />
        </mxCell>
        <mxCell id="bPEXhzp361YjIitsZas1-66" value="" style="endArrow=classic;startArrow=classic;html=1;" edge="1" parent="1">
          <mxGeometry width="50" height="50" relative="1" as="geometry">
            <mxPoint x="391" y="500" as="sourcePoint" />
            <mxPoint x="391" y="467" as="targetPoint" />
          </mxGeometry>
        </mxCell>
        <mxCell id="bPEXhzp361YjIitsZas1-67" value="" style="endArrow=classic;startArrow=classic;html=1;entryX=0.604;entryY=1.01;entryDx=0;entryDy=0;entryPerimeter=0;exitX=0.594;exitY=0.018;exitDx=0;exitDy=0;exitPerimeter=0;" edge="1" parent="1" source="bPEXhzp361YjIitsZas1-5" target="bPEXhzp361YjIitsZas1-34">
          <mxGeometry width="50" height="50" relative="1" as="geometry">
            <mxPoint x="440" y="496" as="sourcePoint" />
            <mxPoint x="440" y="370" as="targetPoint" />
          </mxGeometry>
        </mxCell>
        <mxCell id="bPEXhzp361YjIitsZas1-69" value="" style="rounded=0;whiteSpace=wrap;html=1;strokeWidth=1;" vertex="1" parent="1">
          <mxGeometry x="24" y="80" width="110" height="530" as="geometry" />
        </mxCell>
        <mxCell id="bPEXhzp361YjIitsZas1-70" value="监&lt;br&gt;控&lt;br&gt;和&lt;br&gt;全&lt;br&gt;链&lt;br&gt;路&lt;br&gt;追&lt;br&gt;踪" style="text;html=1;strokeColor=none;fillColor=none;align=center;verticalAlign=middle;whiteSpace=wrap;rounded=0;" vertex="1" parent="1">
          <mxGeometry x="24" y="80" width="40" height="140" as="geometry" />
        </mxCell>
        <mxCell id="bPEXhzp361YjIitsZas1-72" value="Grafana" style="rounded=0;whiteSpace=wrap;html=1;strokeWidth=1;" vertex="1" parent="1">
          <mxGeometry x="34" y="250" width="90" height="50" as="geometry" />
        </mxCell>
        <mxCell id="bPEXhzp361YjIitsZas1-73" value="Prometheus" style="rounded=0;whiteSpace=wrap;html=1;strokeWidth=1;" vertex="1" parent="1">
          <mxGeometry x="34" y="340" width="90" height="50" as="geometry" />
        </mxCell>
        <mxCell id="bPEXhzp361YjIitsZas1-74" value="APM" style="rounded=0;whiteSpace=wrap;html=1;strokeWidth=1;" vertex="1" parent="1">
          <mxGeometry x="34" y="429" width="90" height="50" as="geometry" />
        </mxCell>
        <mxCell id="bPEXhzp361YjIitsZas1-75" value="" style="shape=flexArrow;endArrow=classic;html=1;width=13;endSize=4.37;startSize=4.37;" edge="1" parent="1">
          <mxGeometry width="50" height="50" relative="1" as="geometry">
            <mxPoint x="134" y="200" as="sourcePoint" />
            <mxPoint x="167" y="199.5" as="targetPoint" />
          </mxGeometry>
        </mxCell>
        <mxCell id="bPEXhzp361YjIitsZas1-79" value="" style="shape=flexArrow;endArrow=classic;html=1;width=13;endSize=4.37;startSize=4.37;" edge="1" parent="1">
          <mxGeometry width="50" height="50" relative="1" as="geometry">
            <mxPoint x="134" y="299.5" as="sourcePoint" />
            <mxPoint x="167" y="299" as="targetPoint" />
          </mxGeometry>
        </mxCell>
        <mxCell id="bPEXhzp361YjIitsZas1-81" value="" style="shape=flexArrow;endArrow=classic;html=1;width=13;endSize=4.37;startSize=4.37;" edge="1" parent="1">
          <mxGeometry width="50" height="50" relative="1" as="geometry">
            <mxPoint x="134" y="429.5" as="sourcePoint" />
            <mxPoint x="167" y="429" as="targetPoint" />
          </mxGeometry>
        </mxCell>
        <mxCell id="bPEXhzp361YjIitsZas1-82" value="" style="shape=flexArrow;endArrow=classic;html=1;width=13;endSize=4.37;startSize=4.37;" edge="1" parent="1">
          <mxGeometry width="50" height="50" relative="1" as="geometry">
            <mxPoint x="134" y="555" as="sourcePoint" />
            <mxPoint x="167" y="554.5" as="targetPoint" />
          </mxGeometry>
        </mxCell>
      </root>
    </mxGraphModel>
  </diagram>
</mxfile>
